<?xml version="1.0" encoding="utf-8"?>

<svg version="1.0" id="katman_1" xmlns="http://www.w3.org/2000/svg" xmlns:xlink="http://www.w3.org/1999/xlink" x="0px" y="0px"
	 viewBox="0 0 669.8 733.8" style="enable-background:new 0 0 669.8 733.8;" xml:space="preserve">
<path d="M431.1,571.4l2.3-1.4l2.4-1.4l2.5-1.4l2.6-1.4l2.7-1.4l2.8-1.4l2.9-1.4l3-1.4l2-1l2.2-1.1l2.3-1.3l2.5-1.4l2.7-1.6l2.9-1.7
	l3-1.9l3.2-2l1.9-1.2l1.8-1.2l1.8-1.3l1.8-1.3l1.7-1.3l1.7-1.4l1.7-1.4l1.6-1.4l1.6-1.4l1.5-1.5l1.5-1.5l1.5-1.5l1.5-1.6l1.5-1.6
	l1.5-1.6l1.4-1.7l1.4-1.7l1.4-1.8l1.4-1.8l1.4-1.9l1.4-1.9l1.4-2l1.4-2l1.4-2.1l1.2-1.8l1.1-1.8l1.1-1.8l1.1-1.8l1.1-1.8l1-1.8
	l1-1.8l1-1.9l1-1.9l1-1.9l0.9-1.9l0.9-1.9l0.9-1.9l0.9-1.9l0.9-1.9l0.8-1.9l0,0l0,0l0,0l0.9-2.3l0.9-2.3l0.9-2.3l0.9-2.3l0.8-2.3
	l0.8-2.3l0.8-2.3l0.8-2.3l0.7-2.3l0.7-2.3l0.7-2.3l0.7-2.3l0.6-2.3l0.6-2.3l0.6-2.3l0.6-2.3l0.5-2.3l0.5-2.3l0.5-2.3l0.5-2.3
	l0.4-2.3l0.4-2.3l0.4-2.3l0.3-2.3l0.3-2.3l0.3-2.3l0.3-2.3l0.2-2.3l0.2-2.3l0.2-2.3l0.2-2.2l0.1-2.2l0.1-2.2l0.1-2.5l0.1-2.7
	l0.2-7.2l0.2-7.7l0.1-2.9l0.1-2.7l0.1-2.6l0.2-2.5l0.2-2.4l0.2-2.3l0.2-1.7l0.2-1.7l0.2-1.6l0.3-1.6l0.3-1.6l0.3-1.5l0.4-1.5
	l0.4-1.5l0.4-1.5l0.5-1.4l0.5-1.4l0.5-1.4l0.5-1.4l0.6-1.4l0.6-1.3l0.7-1.3l0.9-1.8l1-1.7l1-1.7l1.1-1.7l0.8-1.1l0.8-1.1l0.8-1.1
	l0.8-1l0.9-1l0.9-1l0.9-1l0.9-1l1-1l1-1l1-1l1.1-0.9l1.1-0.9l1.1-0.9l1.1-0.9l1.2-0.8l1.2-0.8l1.2-0.8l1.2-0.8l1.2-0.8l1.3-0.8
	l1.3-0.7l1.3-0.7l1.3-0.7l1.4-0.7l1.4-0.6l1.4-0.6l1.4-0.6l1.5-0.6l1.5-0.6l1.5-0.6l1.6-0.5l1.6-0.5l1.6-0.5l1.7-0.5l1.7-0.5
	l1.7-0.5l1.7-0.4l1.8-0.4l1.8-0.4l0.2,0l0.1-0.1l0.1-0.1l0-0.1l0,0l0,0l0-0.1l0-0.1l-0.1-0.1l-0.1-0.1l-0.9-0.9l-0.9-0.9l-0.9-0.8
	l-0.9-0.8l-0.9-0.8l-0.9-0.7l-0.8-0.6l-0.8-0.6l-0.8-0.6l-0.8-0.5l-0.8-0.5l-0.8-0.4l-0.8-0.4l-0.7-0.3l-0.7-0.3l-0.7-0.2l-1.1-0.3
	l-1.2-0.3l-1.2-0.2l-1.3-0.2l-1.4-0.2l-1.4-0.1l-1.5-0.1l-1.6-0.1l-0.5,0l-0.5-0.1l-0.5-0.1l-0.5-0.2l-0.5-0.2l-0.5-0.3l-0.5-0.3
	l-0.5-0.3l-1.9-1.2l-0.9-0.6l-0.9-0.5l-0.9-0.5l-0.9-0.5l-0.9-0.5l-0.9-0.4l-0.8-0.4l-0.8-0.4l-0.8-0.3l-0.8-0.3l-0.8-0.3l-0.8-0.2
	l-0.8-0.2l-0.8-0.2l-1.9-0.4l-1.8-0.3l-1.9-0.3l-1.9-0.2l-1.9-0.2l-1.9-0.1l-1.9-0.1l-1.9,0l-1.9,0l-1.9,0.1l-1.9,0.1l-1.8,0.2
	l-1.8,0.2l-1.8,0.2l-1.8,0.3l-1.8,0.4l-2.1,0.5l-2.1,0.5l-2.1,0.6l-2.1,0.7l-2.1,0.7l-2,0.8l-2,0.9l-2,0.9l-2,1l-1.9,1l-1.9,1.1
	l-1.9,1.2l-1.8,1.2l-1.8,1.3l-1.8,1.3l-1.7,1.4l-1.7,1.4l-1.6,1.5l-1.6,1.5l-1.5,1.6l-1.5,1.6l-1.5,1.7l-1.4,1.7l-1.4,1.8l-1.3,1.8
	l-1.2,1.8l-1.2,1.9l-1.2,1.9l-1.1,1.9l-1,2l-1,2l-0.9,2.1l-1.4,3.1l-1.4,3l-1.4,2.9l-1.4,2.9l-0.6,1.2l-0.7,1.2l-0.7,1.2l-0.7,1.1
	l-0.8,1.1l-0.8,1.1l-0.9,1.1l-0.9,1l-0.9,0.9l-0.9,0.9l-0.9,0.9l-1,0.9l-1,0.8l-1,0.8l-1,0.8l-1.1,0.8l-1.1,0.7l-1.1,0.7l-1.2,0.7
	l-1.2,0.7l-1.2,0.6l-1.3,0.6l-1.3,0.6l-1.3,0.6l-1.4,0.5l-1.4,0.5l-1.4,0.5l-1.5,0.5l-1.5,0.4l-1.5,0.4l-1.6,0.4l-1.6,0.4l-1.7,0.4
	l-1.7,0.3l-1.8,0.3l-1.8,0.3l-1.9,0.3l-1.9,0.2l-2,0.2l-2,0.2l-5,0.5l-4.9,0.4l-4.8,0.3l-4.7,0.3l-4.7,0.2l-4.6,0.1l-4.5,0l-4.5,0
	l-5.7-0.1l-5.3,0h-5l-4.7,0l-4.3,0.1l-4,0.1l-3.6,0.1l-3.3,0.1l-8.9,0.4l-8.7,0.4l-8.5,0.4l-8.3,0.3l-5.1,0.2l-5.1,0.2l-5.1,0.1
	l-5.1,0.1l-5.1,0.1l-5.1,0.1l-5.1,0h-5.1l-5.1,0l-5.1-0.1l-5.2-0.1l-5.2-0.1l-5.2-0.1l-5.2-0.1l-5.2-0.2l-5.2-0.2l-7.5-0.3l-7.5-0.4
	l-7.5-0.5l-7.4-0.6l-7.4-0.6l-7.4-0.7l-7.4-0.8l-7.3-0.8l-7.3-0.9l-7.3-1l-7.2-1l-7.2-1.1l-7.2-1.2l-7.1-1.2l-7.1-1.3l-7.1-1.4
	l-4.9-1l-4.9-1.1l0,0l0,0l-3.1-0.7l-3.1-0.8l-3.1-0.8l-3.1-0.8l-3.1-0.8l-3.1-0.9l-3.1-0.9l-3.1-0.9l-3.1-1l-2.9-0.9l-2.8-0.9
	l-2.6-0.9L72,347l-2.4-1l-2.4-1l-2.3-1l-2.2-1l-2.1-1l-2.1-1l-2-1.1l-2-1.1l-1.9-1.1l-1.9-1.2l-1.8-1.2l-1.1-0.8l-1.1-0.8l-1-0.8
	l-1-0.8l-0.9-0.8l-0.9-0.8l-0.9-0.8l-0.8-0.8l-0.8-0.9l-0.8-0.9l-0.7-0.9l-0.7-0.9l-0.7-0.9l-0.6-0.9l-0.6-0.9l-0.6-1l-0.4-0.8
	l-0.3-0.8l-0.3-0.8l-0.2-0.8l-0.2-0.8l-0.1-0.8l0-0.8l0-0.7l0.1-0.7l0.2-0.7l0.2-0.7l0.3-0.6l0.3-0.6l0.4-0.5l0.4-0.5l0.5-0.4
	l0.4-0.3l0.5-0.2l0.5-0.2l0.5-0.1l0.5-0.1l0.5-0.1l0.6,0l0.6,0l0.6,0.1l0.6,0.1l0.6,0.2l0.6,0.2l0.6,0.2l0.6,0.3l0.6,0.3l0.6,0.4
	l1.9,1.1l1.9,1.1l2,1.1l2,1.1l2.1,1.1l2.1,1.1l2.1,1l2.2,1l2.2,1l2.2,1l2.2,1l2.3,1l2.3,0.9l2.3,0.9l2.4,0.9l2.4,0.9l3.3,1.2
	l3.2,1.1l3.2,1.1l3.2,1.1l3.1,1l3.1,1l3.1,1l3.1,0.9l3,0.9l3,0.9l3,0.8l2.9,0.8l2.9,0.7l2.9,0.7l2.8,0.7l2.8,0.6l7.5,1.6l7.4,1.6
	l7.5,1.5l7.5,1.4l7.5,1.3l7.5,1.3l7.5,1.2l7.5,1.1l7.5,1.1l7.5,1l7.5,0.9l7.5,0.8l7.5,0.8l7.5,0.7l7.5,0.6l7.5,0.6l0,0l0,0l0,0l0,0
	l0,0l0,0l4.8,0.3l4.8,0.3l4.9,0.3l4.8,0.2l4.9,0.2l4.8,0.2l4.9,0.1l4.9,0.1l4.9,0.1l4.9,0.1l4.9,0l4.9,0l4.9,0l4.9-0.1l4.9-0.1
	l4.9-0.1l0.1,0l0.1-0.1l0.1-0.1l0-0.1V361l-0.1-0.1l0,0l0,0l-0.1-0.1l-0.2-0.1l-1.4-0.3l-1.4-0.4l-1.4-0.4l-1.4-0.5l-1.4-0.5
	l-1.4-0.6l-1.5-0.6l-1.5-0.7l-1.5-0.7l-1.5-0.8l-1.5-0.8l-1.6-0.9l-1.6-0.9l-1.6-1l-1.7-1.1l-1.7-1.1l-0.4-0.2l-0.4-0.2l-0.4-0.2
	l-0.4-0.1l0,0l0,0l-0.5-0.2l-0.5-0.1l-0.6-0.1l-0.6,0l-6.1-0.4l-6.1-0.4l-6.1-0.5l-6.1-0.5l-6.1-0.5l-6.1-0.6l-6.1-0.6l-6.1-0.7
	l-6.1-0.7l-6.1-0.8l-6.1-0.8l-6.1-0.9l-6.1-0.9l-6.1-1l-6.1-1l-6.1-1.1l-5-0.9l-4.9-0.9l-4.8-1l-4.7-1l-9.2-1.9l-7.2-1.5l-5.2-1.1
	l-4.7-1.1l-4.3-1l-3.8-0.9l-3.8-1l-3.8-1l-3.8-1l-3.8-1l-3.8-1.1l-3.8-1.1l-3.8-1.1l-3.8-1.1l-3.8-1.1l-3.8-1.2l-3.8-1.2l-3.8-1.2
	l-3.8-1.2l-3.8-1.3l-3.8-1.3l-3.7-1.3l-3.8-1.4l-3.9-1.5l-4-1.6l-4.1-1.7l-4.2-1.8l-4.3-1.8l-4.4-1.9l-2-0.9l-1.9-0.9l-1.9-0.9
	l-1.9-0.9l-1.8-0.9l-1.8-1l-1.8-1l-1.7-1l-1.7-1l-1.7-1l-1.7-1l-1.6-1.1l-1.6-1.1l-1.6-1.1l-1.5-1.1l-1.5-1.1l-1.6-1.3l-1.6-1.3
	l-1.6-1.3l-1.5-1.3l-1.4-1.3l-1.3-1.3l-1.2-1.3l-1.2-1.3l-1.1-1.3l-1-1.3l-0.9-1.2l-0.8-1.2l-0.7-1.2l-0.6-1.2l-0.5-1.1l-0.2-0.6
	l-0.2-0.6l-0.2-0.7l-0.1-0.7l-0.1-0.7l-0.1-0.7v-0.7l0-0.6l0.1-0.6l0.1-0.6l0.2-0.6l0.2-0.6l0.3-0.5l0.3-0.5l0.4-0.5l0.4-0.4
	l0.4-0.4l0.5-0.4l0.5-0.3l0.5-0.3l0.6-0.2l0.6-0.2l0.6-0.1l0.6-0.1l0.6,0l0.6,0l0.6,0.1l0.6,0.1l0.6,0.2l0.6,0.2l0.6,0.3l0.6,0.3
	l0.6,0.4l0.6,0.4l2.6,2l2.7,2l2.7,1.9l2.8,1.9L38,261l2.9,1.8l2.9,1.8l3,1.8l3.1,1.7l3.1,1.7l3.2,1.7l3.2,1.6l3.3,1.6l3.3,1.6
	l3.4,1.5l3.4,1.5l3.5,1.5l3.3,1.4l3.2,1.3l3.1,1.2l2.9,1.1l2.8,1l2.7,1l2.5,0.9l3.9,1.4l4,1.3l4,1.3l4,1.3l4,1.3l4,1.3l4,1.2l4,1.2
	l4,1.2l4.1,1.2l4.1,1.2l4.1,1.1l4.1,1.1l4.1,1.1l4.1,1.1l4.2,1.1l7.2,1.8l6.9,1.8l6.7,1.7l6.5,1.6l6.3,1.5l6.1,1.5l6,1.4l5.9,1.4
	l5.8,1.3l5.7,1.2l5.6,1.2l5.6,1.2l5.5,1.1l5.5,1.1l5.4,1.1l5.4,1l2.7,0.5l2.7,0.4l2.7,0.4l2.7,0.4l2.8,0.4l2.8,0.3l2.8,0.3l2.8,0.3
	l2.9,0.2l2.9,0.2l3,0.2l3,0.2l3.1,0.1l3.2,0.1l3.3,0.1l3.4,0.1l0.6,0l0.6,0.1l0,0l0.4,0.1l0.4,0.1l0.4,0.2l0.4,0.2l2.5,1.3l2.5,1.2
	l2.5,1.2l2.5,1.2l2.6,1.1l2.6,1.1l2.6,1l2.6,1l2.6,0.9l2.6,0.9l2.6,0.8l2.6,0.8l2.6,0.7l2.6,0.7l2.7,0.6l2.7,0.6l0,0l0,0l0,0
	l2.7,0.5l2.7,0.5l3,0.5l3,0.5l3.1,0.4l3.1,0.4l3.1,0.4l3.1,0.3l3.1,0.3l3.1,0.3l3.1,0.2l3.1,0.2l3.1,0.2l3.1,0.1l3.2,0.1l3.2,0.1
	l3.2,0l3.2,0l0.5,0l0.3,0l0.2-0.1l0.1,0l0,0l0,0l0,0l0,0l0-0.1l-0.2-0.1l-0.3-0.1l-0.5-0.2l-2.6-0.8l-2.6-0.9l-2.6-0.9l-2.6-1
	l-2.3-0.8l-2.4-0.8l-2.5-0.8l-2.7-0.8l-2.8-0.7l-3.1-0.8l-3.5-0.8l-4.7-1l-5.8-1.3l-6.3-1.4l-2.8-0.7l-2.5-0.6l-2.3-0.6l-2-0.5
	l-1.8-0.5l-1.5-0.5l-3.3-1.1l-3.3-1.1l-3.2-1.2l-3.1-1.2l-3-1.3l-2.9-1.3l-2.9-1.4l-2.8-1.4l-1.3-0.7l-1.3-0.7l-1.3-0.8l-1.2-0.8
	l-1.2-0.8l-1.2-0.8l-1.2-0.9l-1.1-0.9l-0.4-0.3l-0.4-0.2l-0.4-0.1l-0.5-0.1l-4.1-0.3l-4.1-0.4l-4.1-0.4l-4.1-0.5l-4.1-0.5l-4.1-0.5
	l-4.1-0.6l-4.1-0.6l-4.1-0.7l-4.1-0.7l-4.1-0.7l-4.1-0.8l-4.1-0.8l-4.1-0.9l-4.1-0.9l-4.1-1l-9.6-2.3l-9.5-2.4l-9.4-2.4l-9.4-2.5
	l-9.3-2.6l-9.2-2.6l-9.2-2.7l-9.1-2.7l-4.7-1.5l-5.2-1.6l-5.8-1.9l-7.9-2.6l-8.1-2.7l-5.9-1.9l-4.9-1.6l-4.9-1.7l-5.1-1.8l-5.2-1.9
	l-5.3-2l-5.5-2.1l-5.8-2.3l-6.1-2.4l-5.3-2.2l-5-2.1l-4.8-2.1l-4.6-2.1l-4.4-2.1l-4.3-2.1l-4.1-2.1l-4-2.1l-2-1.1l-1.9-1.1l-1.9-1.1
	l-1.9-1.1l-1.8-1.1l-1.8-1.1l-1.8-1.1l-1.7-1.1l-1.7-1.1l-1.7-1.1l-1.7-1.1l-1.6-1.1l-1.6-1.2l-1.6-1.2l-1.5-1.2l-1.5-1.2l-1.4-1.1
	l-1.5-1.3l-1.5-1.3l-1.5-1.4l-1.5-1.4l-1.5-1.4l-1.4-1.5l-1.4-1.4l-1.3-1.4l-1.2-1.4l-1.2-1.4l-1.1-1.4l-1-1.3l-1-1.3L5.2,207
	l-0.8-1.3l-0.7-1.2l-0.7-1.2l-0.6-1.1l-0.5-1.1L1.3,200l-0.4-1.1l-0.3-1l-0.3-1l-0.2-1L0.1,195L0,194.1l0-0.9l0.1-0.8l0.2-0.8
	l0.2-0.8l0.3-0.8l0,0l0.4-0.7l0.4-0.7l0.5-0.6l0.5-0.5l0.5-0.5l0.6-0.4l0.6-0.3l0.6-0.3l0.5-0.1l0.5-0.1l0.5-0.1l0.5,0l0.5,0
	l0.5,0.1l0.6,0.1l0.5,0.2l0.6,0.2l0.5,0.2l0.5,0.3l0.5,0.3l0.5,0.4l0.5,0.4l0.5,0.4l0.5,0.5l2,2l2,2l2,2l2,1.9l2,1.9l2,1.8l2.1,1.8
	l2.1,1.8l2.1,1.7l2.1,1.7l2.1,1.6l2.1,1.6l2.2,1.6l2.2,1.5l2.2,1.5l2.2,1.4l2.4,1.5l2.4,1.5l2.5,1.5l2.5,1.5l2.6,1.5l2.6,1.5
	l2.7,1.5l2.7,1.5l2.8,1.4l2.8,1.5l2.9,1.4l2.9,1.4l3,1.4l3,1.4l3.1,1.4l3.1,1.4l6.1,2.6l6.1,2.6l6.2,2.5l6.3,2.5l6.3,2.5l6.4,2.4
	l6.5,2.4l6.6,2.4l12.7,4.4l12.6,4.3l12.5,4.2l12.4,4.1l12.3,4l12.2,3.9l12.1,3.8l12.1,3.7l7.2,2.1l6.9,2l3.4,0.9l3.3,0.9l3.3,0.9
	l3.2,0.8l2.5,0.6l2.5,0.6l2.6,0.6l2.7,0.5l2.7,0.5l2.8,0.5l2.8,0.5l2.9,0.4l2.9,0.4l3,0.4l3,0.4l3.1,0.3l3.1,0.3l3.2,0.3l3.2,0.2
	l3.3,0.2l0.3,0l0.3,0.1l0.7,0.2l0.8,0.3l0.9,0.4l1,0.5l1.1,0.6l1.2,0.7l1.6,1l1.5,0.9l1,0.6l2.3,1.2l2.3,1.1l0,0l0,0l0,0l1.4,0.6
	l1.4,0.6l1.5,0.6l1.4,0.6l1.5,0.6l1.5,0.5l1.5,0.5l1.5,0.5l1.5,0.5l1.5,0.4l1.5,0.4l1.5,0.4l1.6,0.4l1.6,0.3l1.6,0.3l1.6,0.3l0.3,0
	l0.1,0l0,0l0,0l0,0l0,0l0,0l0-0.1l-0.2-0.2l-3.6-2.5l-3.9-2.8l-4.4-3.1l-6-4.3l-6.2-4.5l-4.5-3.2l-4.1-2.9l-3.7-2.6l-18-12.3
	l-17.8-12.1l-4.1-2.8l-4.2-2.7l-4.3-2.7l-4.3-2.7l-12.1-7.3l-12.1-7.4l-12.1-7.4l-12.1-7.4l-5.1-3.1l-5.3-3.4l-5.5-3.6l-5.7-3.8
	l-3.7-2.5l-3.7-2.6l-3.7-2.6l-3.6-2.6l-3.6-2.7l-3.6-2.7l-3.5-2.7l-3.5-2.8l-3.5-2.8l-3.4-2.8l-3.4-2.9l-3.4-2.9l-3.3-2.9l-3.3-3
	l-3.3-3l-3.3-3l0,0l0,0l0,0l-2.4-2.3l-2.4-2.3l-2.3-2.3l-2.3-2.3l-2.3-2.3l-2.3-2.4l-2.3-2.4l-2.3-2.4l-2.2-2.4l-2.2-2.4l-2.2-2.4
	l-2.2-2.5l-2.2-2.5l-2.2-2.5l-2.1-2.5l-2.1-2.5l-1.8-2.2l-1.8-2.1l-1.7-2.1l-1.7-2.1l-1.6-2.2l-1.6-2.1l-1.6-2.2l-1.6-2.1l-1.5-2.1
	l-1.5-2.1l-1.5-2.2l-1.4-2.1l-1.4-2.1l-1.4-2.1l-1.3-2.1l-1.3-2.2l-1.3-2.1l-1.2-2.2l-1.2-2.1l-1.2-2.2l-1.2-2.2l-1.1-2.2l-1.1-2.2
	l-1.1-2.2l-1-2.2l-1-2.2l-1-2.2L64.1,74l-0.9-2.2l-0.9-2.2l-0.9-2.2l-0.8-2.2l-0.8-2.3l-0.7-2.2l-0.7-2.2l-0.6-2.1l-0.5-2.1l-0.4-2
	l-0.4-1.9l-0.3-1.9l-0.2-1.8l-0.1-1.8L55.9,43l0-1.7l0.1-1.7l0.1-0.8l0.1-0.8l0.1-0.8l0.1-0.8l0.2-0.8l0.2-0.8l0.2-0.7l0.2-0.7
	l0.3-0.7l0.3-0.6l0.3-0.6l0.4-0.6l0.4-0.5l0.4-0.5l0.4-0.4l0.5-0.4l0.5-0.4l0.5-0.3l0.5-0.3l0.6-0.2l0.6-0.2l0.6-0.1l0.4-0.1l0.4,0
	h0.8l0.8,0.1l0.7,0.1l0.7,0.2l0.7,0.3l0.7,0.4l0.6,0.4l0.6,0.5l0.6,0.6l0.5,0.6l0.5,0.7l0.4,0.7l0.3,0.8l0.3,0.8l0.2,0.9l0.9,3.5
	l1,3.5l1.1,3.5l1.1,3.5l1.2,3.5l1.3,3.5l1.3,3.5l1.4,3.5l1.5,3.5l1.6,3.5l1.7,3.5l1.7,3.5l1.8,3.5l1.9,3.4l2,3.4l2,3.4l2.1,3.4
	l2.2,3.4l2.2,3.4l2.3,3.4l2.4,3.4l2.5,3.4l2.5,3.4l2.6,3.4l2.7,3.4l2.8,3.4l2.8,3.4l2.9,3.4l3,3.4l3,3.3l3.1,3.3l3.2,3.3l2.8,2.9
	l2.8,2.9l2.9,2.8l2.9,2.8l2.9,2.7l2.9,2.7l2.9,2.6l2.9,2.6l2.9,2.5l2.9,2.5l2.9,2.5l2.9,2.4l2.9,2.4l2.9,2.3l2.9,2.3l2.9,2.3l7.9,6
	l6.6,5l6,4.5l5.6,4.1l5.4,3.9l5.2,3.7l5.1,3.5l5.1,3.4l3.5,2.2l3.8,2.4l4.2,2.6l5.7,3.5l5.4,3.3l4,2.5l3.6,2.3l3.3,2.1l0.1,0h0.1
	l0,0l0.1,0l0.1-0.1l0.2-0.2l0-0.1l0-0.1l-2.9-2.6l-2.9-2.6l-2.9-2.7l-2.9-2.7l-9.2-8.8l-9.1-8.7l-8.9-8.6l-8.7-8.6l-8.6-8.5
	l-8.4-8.4l-8.2-8.3l-8.1-8.2l-4.6-4.7l-4.5-4.7l-4.4-4.7l-4.3-4.6l-4.2-4.6l-4.1-4.6l-4-4.6l-3.9-4.6l-3.8-4.6l-3.7-4.5l-3.6-4.5
	l-3.6-4.5l-3.4-4.5l-3.4-4.5l-3.3-4.5l-3.2-4.5l-2-2.9l-2-2.9l-1.9-2.9l-1.9-2.9l-1.8-2.9l-1.8-2.9l-1.7-2.9l-1.7-2.9l-1.6-2.9
	l-1.6-2.9l-1.5-2.9l-1.5-2.9l-1.4-2.9l-1.4-2.9l-1.4-2.9l-1.3-2.9l-1-2.4l-1-2.4l-0.9-2.4L92,32.6l-0.8-2.4l-0.8-2.4l-0.7-2.4
	L88.9,23l-0.5-1.8L88,19.3l-0.3-1.8l-0.1-0.9l-0.1-0.9l-0.1-0.9l-0.1-0.8l0-0.9l0-0.8l0-0.8l0-0.8l0-0.8l0.1-0.8l0.1-0.8l0.2-0.8
	l0.2-0.8l0.3-0.8l0.3-0.8l0.4-0.7l0.4-0.7l0.5-0.6l0.5-0.6L90.9,2l0.6-0.5l0.6-0.4l0.6-0.3l0.7-0.3L94,0.3l0.7-0.1L95.3,0l0.6,0
	l0.6,0L97,0.1l0.6,0.1l0.6,0.1l0.6,0.2l0.6,0.2l0.4,0.2l0.4,0.2l0.4,0.2l0.4,0.2l0.4,0.2l0.3,0.3l0.3,0.3l0.3,0.3l0,0l0,0l0,0l0,0
	l0.3,0.4l0.3,0.4l0.3,0.4l0.3,0.4l0.2,0.5l0.2,0.5l0.2,0.5l0.2,0.5l0.9,2.8l0.9,2.8l1,2.8l1,2.8l1,2.8l1.1,2.8l1.1,2.8l1.2,2.8
	l1.2,2.8l1.2,2.8l1.3,2.8l1.3,2.8l1.4,2.8l1.4,2.7l1.4,2.7l1.5,2.7l1.5,2.7l1.5,2.7l1.6,2.7l1.6,2.7l1.7,2.7l1.7,2.7l1.7,2.7
	l1.8,2.7l1.8,2.7l1.9,2.7l1.9,2.7l1.9,2.7l2,2.7l2,2.7l2.1,2.7l2.1,2.7l2.3,2.9l2.4,2.9l2.4,3l2.5,3l2.5,3l2.5,3l2.6,3l2.6,3
	l2.7,3.1l2.7,3.1l2.8,3.1l2.8,3.1l2.9,3.1l2.9,3.2l3,3.2l3,3.2l6.1,6.4l6.4,6.6l6.7,6.8l7.1,7.1l7.4,7.3l7.9,7.8l8.7,8.4l10,9.7
	l13.7,13.1l13.8,13.1l13.9,13.1l14,13.2l8.5,7.9l8.1,7.5l7.7,7.1l7.4,6.6l3.5,3.1l3.4,3l3.4,2.9l3.3,2.8l3.2,2.7l3.1,2.6l3,2.5
	l2.9,2.4l2.9,2.4l2.9,2.3l2.9,2.3l3,2.2l3,2.2l3,2.1l3,2.1l3,2.1l3,2l3,2l3,1.9l3.1,1.9l3.1,1.9l3.1,1.8l3.1,1.8l3.1,1.7l2.2,1.2
	l2.2,1.1l2.2,1l2.2,0.9l2.2,0.8l1,0.4l1,0.3l1,0.3l1,0.3l1,0.3l1,0.2l1,0.2l1,0.2l1,0.2l1,0.1l0.9,0.1l0.9,0.1l0.9,0.1l0.9,0l0.9,0
	l0.9,0l0.9,0l0.9-0.1l0.8-0.1l0.8-0.1l0.8-0.1l0.8-0.2l0.6-0.1l0.6-0.2l0.6-0.2l0.6-0.2l0.5-0.2l0.5-0.2l0.5-0.2l0.5-0.3l0,0l0,0
	l0,0l0,0l0,0l0.7-0.4l0.7-0.4l0.7-0.5l0.7-0.5l0.6-0.6l0.6-0.6l0.6-0.6l0.6-0.7l0.6-0.7l0.5-0.7l0.5-0.8l0.5-0.8l0.5-0.9l0.5-0.9
	l0.4-0.9l0.4-1l1.5-3.7l1.4-3.2l1.3-3l1.3-2.8l1.3-2.6l1.3-2.4l1.3-2.3l1.3-2.2l0.9-1.5l0.9-1.4l1-1.4l1-1.4l1-1.4l1-1.4l1.1-1.3
	l1.1-1.3l1.1-1.3l1.1-1.3l1.2-1.2l1.2-1.2l1.2-1.2l1.2-1.2l1.3-1.2l1.3-1.1l1.6-1.4l1.7-1.4l1.7-1.3l1.7-1.3l1.8-1.2l1.8-1.2
	l1.8-1.1l1.9-1.1l1.9-1.1l1.9-1l2-1l2-0.9l2-0.9l2-0.8l2-0.8l2.1-0.7l2.1-0.7l2.1-0.6l2.1-0.6l2.2-0.6l2.2-0.5l2.2-0.4l2.2-0.4
	l2.2-0.4l2.2-0.3l2.2-0.3l2.2-0.2l2.2-0.2l2.3-0.1l2.3-0.1l2.3,0l2.3,0l1.8,0.1l1.7,0.1l1.7,0.1l1.7,0.2l1.7,0.2l1.7,0.2l1.7,0.3
	l1.6,0.3l1.6,0.3l1.6,0.4l1.6,0.4l1.6,0.4l1.5,0.5l1.5,0.5l1.5,0.5l1.5,0.5l0.9,0.4l0.9,0.5l1,0.5l1.4,0.8l1.2,0.7l0.9,0.5l0.8,0.4
	l0.8,0.3l0.8,0.3l0.8,0.2l0.8,0.2l0.8,0.2l2.3,0.5l2.1,0.5l2,0.5l1.9,0.5l1.8,0.5l1.7,0.5l1.6,0.6l1.6,0.6l1.5,0.6l1.5,0.7l1.4,0.7
	l1.4,0.7l1.4,0.8l1.3,0.8l1.3,0.9l1.2,0.9l1,0.7l0.9,0.8l0.9,0.8l0.9,0.8l0.9,0.8l0.8,0.9l0.8,0.9l0.8,0.9l0.8,0.9l0.7,0.9l0.7,1
	l0.7,1l0.6,1l0.6,1l0.6,1l0.5,1l0.5,1l0.5,1l0.4,1.1l0.4,1.1l0.4,1.1l0.3,1.1l0.3,1.1l0.3,1.1l0.2,1.1l0.2,1.1l0.1,1.1l0.1,1.1
	l0.1,1.1l0,1.1l0,1.1l0,1.1l-0.1,1l-0.1,1l-0.1,1l-0.1,1l-0.2,0.9l-0.2,1l-0.2,0.9l-0.3,0.9l-0.5,1.4l-0.5,1.4l-0.6,1.3l-0.6,1.3
	l-0.7,1.3l-0.7,1.2l-0.8,1.2l-0.8,1.1l0,0l0,0l-0.6,0.7l-0.6,0.7l-0.6,0.7l-0.6,0.7l-0.7,0.7l-0.7,0.6l-0.7,0.6l-0.7,0.6l-0.8,0.6
	l-0.8,0.6l-0.8,0.6l-0.8,0.5l-0.8,0.5l-0.9,0.5l-0.9,0.5l-0.9,0.5l-0.4,0.2l-0.4,0.1l-0.2,0h-0.1l-0.1,0l-0.1-0.1l0,0l0,0l-0.1-0.1
	l0-0.1l0-0.1v-0.1l0-0.4l0.1-0.5l0.3-1.2l0.3-1.2l0.2-1.2l0.2-1.2l0.1-1.2l0-1.2l0-1.1l-0.1-1.1l-0.2-1l-0.2-0.9l-0.3-0.9l-0.2-0.4
	l-0.2-0.4l-0.2-0.4l-0.2-0.4l-0.2-0.4l-0.2-0.3l-0.2-0.3l-0.3-0.3L612,331l-0.3-0.3l-0.4-0.3l-0.5-0.3l-0.5-0.3l-0.5-0.2l-0.5-0.2
	l-0.5-0.1l-0.5-0.1l-0.5-0.1l-0.5-0.1l-0.5,0l-0.6,0l-0.6,0l-0.6,0l-0.6,0.1l-0.7,0.1l-0.7,0.1l-0.7,0.1l-0.7,0.2l-1.4,0.4l-1.5,0.5
	l-1.6,0.6l-1.6,0.7l-1.6,0.8l-1.6,0.9l-1.6,0.9l-1.5,0.9l-1.3,0.9l-0.7,0.5l-0.6,0.5l-0.6,0.5l-0.6,0.6l-0.5,0.6l-0.5,0.6l-0.5,0.6
	l-0.5,0.6l-0.3,0.5l-0.3,0.5l-0.3,0.5L582,343l-0.3,0.6l-0.3,0.6l-0.2,0.6l-0.2,0.6l-0.2,0.6l-0.2,0.6l-0.3,1.3l-0.3,1.4l-0.2,1.4
	l-0.1,1.4l-0.1,1.5l0,1.6l0.1,1.6l0.2,1.7l0.2,1.8l0.3,1.8l0.3,2l1.9,9.7l1.8,9.6l0.5,2.7l0.4,2.8l0.4,2.8l0.3,2.8l0.3,2.8l0.2,2.8
	l0.2,2.8l0.1,2.8l0,2.8v2.7l-0.1,2.7l-0.1,2.7l-0.2,2.7l-0.2,2.7l-0.3,2.6l-0.3,2.6l-0.3,2l-0.3,2l-0.4,2l-0.4,1.9l-0.4,1.9
	l-0.4,1.9l-0.4,1.9l-0.5,1.9l-0.6,2.2l-0.6,2.2l-0.6,2.2l-0.7,2.2l-0.7,2.1l-0.7,2.1l-0.8,2.1l-0.8,2.1l-0.8,2.1l-0.9,2.1l-0.9,2.1
	l-0.9,2.1l-1,2.1l-1,2.1l-1,2.1l-1.1,2l-1.1,2l-1.1,2l-1.2,2l-1.2,2l-1.2,2l-1.2,2l-1.3,2l-1.3,2l-1.3,2l-1.4,2l-1.4,2l-1.4,1.9
	l-1.5,1.9l-1.5,1.9l-1.5,1.9l-1.6,1.9l-3.1,3.7l-3.2,3.6l-3.2,3.5l-1.6,1.8l-1.6,1.7l-1.7,1.7l-1.7,1.7l-1.7,1.7l-1.7,1.7l-1.7,1.7
	l-1.7,1.6l-1.7,1.6l-1.7,1.6l-1.7,1.6l-1.8,1.6l-1.8,1.5l-1.8,1.5l-1.8,1.5l-1.8,1.5l-1.8,1.5l-1.8,1.5l-1.8,1.4l-1.8,1.4l-1.8,1.4
	l-1.9,1.4l-1.9,1.4l-1.9,1.4l-1.9,1.3l-1.9,1.3l0,0l0,0l0,0l0,0l0,0l-2.4,1.6l-2.4,1.6l-2.4,1.6l-2.4,1.5l-2.5,1.5l-2.5,1.5
	l-2.5,1.5l-2.5,1.4l-3.2,1.8l-3.5,1.9l-3.8,2l-5.3,2.7l-6.9,3.6l-2.6,1.4l-2.4,1.3l-1.8,1l-1.7,1l-1.7,1l-1.7,1l0,0l0,0l0,0l0,0l0,0
	l-2.8,1.8l-2.8,1.8l-2.8,1.9l-2.7,1.9l-2.7,2l-2.7,2.1l-2.6,2.1l-2.6,2.2l-2.6,2.2l-2.5,2.3l-2.5,2.4l-2.5,2.4l-2.4,2.5l-2.4,2.5
	l-2.3,2.6l-2.3,2.6l-1.6,1.9l-1.6,2l-1.5,2l-1.5,2l-1.5,2l-1.5,2.1l-1.4,2.1l-1.4,2.1l-1.4,2.2l-1.3,2.2l-1.3,2.2l-1.3,2.2l-1.2,2.3
	l-1.2,2.3l-1.2,2.3l-1.2,2.4l-1.1,2.4l-1.1,2.4l-1.1,2.5l-1,2.5l-1,2.5l-1,2.6l-1,2.6l-0.9,2.6l-0.9,2.7l-0.9,2.7l-0.8,2.7l-0.8,2.8
	l-0.8,2.8l-0.7,2.8l-0.7,2.8l-0.7,2.9l-0.3,1.4l-0.4,2.1l-0.5,2.8l-0.2,1.1l-0.2,0.9l-0.2,0.9l-0.3,0.8l-0.3,0.8l-0.3,0.7l-0.3,0.7
	l-0.3,0.7l-0.4,0.6l-0.4,0.6l-0.4,0.5l-0.5,0.5L355,717l-0.5,0.4l-1.1,0.8l-1.2,0.8l-1.3,0.8l-1.4,0.8l-1.6,0.8l-1.7,0.8l-1.8,0.8
	l-1.9,0.8l-2.1,0.8l-2.1,0.8l-2.1,0.7l-2.2,0.7l-2.2,0.7l-2.2,0.6l-2.2,0.6l-2.2,0.6l-2.3,0.5l-2.3,0.5l-2.3,0.5l-2.3,0.5l-2.3,0.4
	l-2.4,0.4l-2.4,0.3l-2.4,0.3l-2.4,0.3l-2.4,0.3l-2.5,0.2l-2.5,0.2l-2.5,0.2l-2.5,0.1l-2.5,0.1l-2.5,0.1l-2.5,0h-2.6l-2.6,0l-2.6-0.1
	l-2.6-0.1l-2.6-0.1l-2.6-0.2l-2.6-0.2l-3.7-0.3l-3.7-0.3l-3.6-0.4l-3.6-0.4l-3.6-0.5l-3.6-0.5l-3.5-0.6l-3.5-0.6l-3.5-0.7l-3.4-0.7
	l-3.4-0.8l-3.4-0.8l-3.4-0.9l-3.3-0.9l-3.3-1l-3.3-1l-3.2-1.1l-3.2-1.1l-3.2-1.1l-3.2-1.2l-3.2-1.2l-3.2-1.3l-3.2-1.3l-3.2-1.3
	l-3.2-1.4l-3.1-1.4l-3.1-1.5l-3.1-1.5l-3.1-1.5l-3.1-1.6l-3.1-1.6l-3.1-1.7l-3.1-1.7l-3.1-1.8l-3.1-1.8l-3-1.8l-3-1.9l-3-1.9l-3-1.9
	l-3-2l-3-2l-2.9-2l-2.9-2.1l-2.9-2.1l-2.9-2.2l-2.9-2.2l-2.9-2.2l-2.8-2.2l-17.8-14.3l-0.8-0.6l-0.7-0.7l-0.6-0.7l-0.5-0.7l-0.4-0.7
	l-0.3-0.7l-0.1-0.4l-0.1-0.4l-0.1-0.4l-0.1-0.4l0-0.4l0-0.4l0-0.7l0.1-0.8l0.1-0.8l0.1-0.5l0.1-0.5l0.2-0.5l0.2-0.4l0.2-0.4l0.3-0.4
	l0.3-0.4l0.3-0.3l0.4-0.3l0.4-0.3l0.4-0.3l0.5-0.2l0.5-0.2l0.5-0.2l0.5-0.1l0.5-0.1l5.4-0.9l5.3-1l5.3-1l5.3-1.1l5.3-1.2l5.3-1.2
	l5.2-1.3l5.2-1.4l0,0l0,0l0,0l0,0l3.3-0.9l3.3-0.9l3.3-1l3.2-1l3.2-1l3.2-1l3.2-1.1l3.2-1.1l3.2-1.1l3.2-1.1l3.2-1.2l3.2-1.2
	l3.2-1.2l3.2-1.2l3.2-1.3l3.2-1.3l4.5-1.9l4.5-2l4.4-2l4.3-2l4.3-2.1l4.2-2.1l4.1-2.2l4.1-2.2l4.2-2.4l4.1-2.4l4.1-2.4l4.1-2.5
	l4-2.5l4-2.5l3.9-2.6l3.9-2.6l3.8-2.6l3.8-2.7l3.7-2.7l3.7-2.7l3.6-2.8l3.6-2.8l3.5-2.8l3.5-2.9l0.8-0.7l0.8-0.6l0.8-0.5l0.8-0.5
	l0.8-0.5l0.8-0.4l0.7-0.3l0.7-0.3l0.7-0.2l0.7-0.2l0.7-0.1l0.7-0.1l0.7,0l0.6,0l0.6,0.1l0.6,0.1l0.7,0.2l0.7,0.3l0.7,0.4l0.7,0.4
	l0.6,0.5l0.6,0.6l0.6,0.7l0.6,0.7l0.4,0.6l0.4,0.6l0.3,0.6l0.2,0.6l0.2,0.6l0.1,0.6l0.1,0.6l0,0.6l0,0l0,0l0,0l0,0.5l-0.1,0.5
	l-0.1,0.5l-0.2,0.5l-0.2,0.5l-0.2,0.5l-0.3,0.5l-0.4,0.5l-0.6,0.9l-0.7,0.9l-0.8,0.9l-0.9,0.9l-1,0.9l-1.1,1l-1.3,1.1l-1.8,1.5
	l-2.1,1.8l-3.2,2.7l-3.2,2.6l-3.2,2.5l-3.1,2.5l-3.1,2.4l-3,2.3l-3,2.2l-3,2.1l-2.4,1.6l-2.4,1.6l-2.4,1.6l-2.4,1.6l-2.4,1.6
	l-2.4,1.5l-2.4,1.5l-2.4,1.5l0,0l-2.5,1.5l-2.5,1.5l-2.5,1.4l-2.5,1.4l-2.5,1.4l-2.5,1.4l-2.5,1.4l-2.5,1.4l-2.6,1.3l-2.6,1.3
	l-2.6,1.3l-2.6,1.3l-2.6,1.3l-2.6,1.2l-2.6,1.2l-2.6,1.2l-2.6,1.2l-2.6,1.2l-2.7,1.1l-2.7,1.1l-2.7,1.1l-2.7,1.1l-2.7,1.1l-2.7,1.1
	l-2.7,1l-2.7,1l-2.8,1l-2.8,1l-2.8,1l-2.8,0.9l-2.8,0.9l-2.8,0.9l-4.1,1.3l-4.1,1.3l-4.1,1.2l-4.1,1.2l-4.2,1.1l-4.2,1.1l-4.2,1.1
	l-4.2,1l-1.8,0.4l-1.9,0.4l-0.1,0l-0.1,0.1l0,0.1l0,0.1l0.1,0.1l1.6,1l1.5,1l6.1,4.3l6.1,4.2l6.1,4.2l6.1,4.1l0.8,0.5l0.6,0.4
	l0.6,0.3l0.6,0.2l0.6,0.2l0.5,0.1l0.5,0l0.5,0l0.1,0l1.1-0.3l1.1-0.3l1.1-0.3l1.1-0.3l3.9-1.4l4-1.4l3.9-1.5l3.9-1.5l3.9-1.6
	l3.9-1.7l3.9-1.7l3.9-1.8l3.9-1.8l3.9-1.9l3.9-1.9l3.9-2l3.8-2l3.8-2.1l3.8-2.2l3.8-2.2l3-1.8l2.9-1.8l2.9-1.7l2.8-1.7l2.8-1.7
	l2.7-1.7l2.7-1.7l2.6-1.7l2.6-1.7l2.5-1.7l2.5-1.7l2.4-1.7l2.4-1.7l2.3-1.7l2.3-1.7l2.2-1.7l4.2-3.2l4.2-3.3l4.2-3.4l4.2-3.5
	l4.2-3.5l4.2-3.6l4.2-3.7l4.2-3.8l4.2-3.9l4.3-4l4.3-4l4.3-4.1l4.4-4.2l4.4-4.4l4.4-4.5l4.5-4.6l0.9-0.9l0.9-0.8l0.8-0.7l0.8-0.6
	l0.8-0.5l0.7-0.4l0.7-0.3l0.6-0.2l0.7-0.2l0.6-0.1l0.6-0.1l0.6,0l0.6,0l0.6,0l0.6,0.1l0.6,0.1l0,0l0,0l0,0l0.5,0.2l0.5,0.2l0.5,0.2
	l0.5,0.3l0.5,0.3l0.5,0.4l0.4,0.4l0.4,0.4l0.7,0.7l0.6,0.7l0.5,0.7l0.4,0.7l0.3,0.7l0.1,0.4l0.1,0.4l0.1,0.4l0.1,0.4l0.1,0.4l0,0.4
	l0,0l0,0l0,0l0,0l0,0v0.4l0,0.4l0,0.4l-0.1,0.4l-0.1,0.4l-0.1,0.4l-0.1,0.4l-0.2,0.4l-0.2,0.4l-0.2,0.4l-0.5,0.8l-0.6,0.8l-0.7,0.8
	l-2.3,2.6l-2.3,2.6l-2.3,2.6l-2.3,2.6l-2.4,2.6l-2.4,2.5l-2.4,2.5l-2.4,2.5l-2.4,2.5l-2.4,2.5l-2.5,2.4l-2.5,2.4l-2.5,2.4l-2.5,2.4
	l-2.5,2.4l-2.6,2.3l0,0l-3,2.7l-3,2.7l-3,2.7l-3.1,2.6l-3.1,2.6l-3.1,2.6l-3.1,2.6l-3.2,2.5l-3.2,2.5l-3.2,2.5l-3.2,2.5l-3.3,2.4
	l-3.3,2.4l-3.3,2.4l-3.3,2.4l-3.4,2.3l-2.9,2l-2.9,2l-3,1.9l-3,1.9l-3,1.9l-3,1.8l-3,1.8l-3,1.8l-3,1.8l-3,1.7l-3,1.7l-3.1,1.7
	l-3.1,1.6l-3.1,1.6l-3.1,1.6l-3.1,1.5l-3.2,1.5l-3.6,1.7l-4.1,1.8l-5.7,2.5l-4.6,2l-3.4,1.5l-1.3,0.6l-1.4,0.5l-1.4,0.5l-1.5,0.5
	l-0.1,0.1l-0.1,0.1l0,0l-0.2,0.2l-0.1,0.2l0,0.2l0,0.2l0.1,0.1l0.1,0.1l4.6,2.1l4.3,1.9l4,1.8l3.9,1.7l3.8,1.6l3.7,1.5l3.7,1.5
	l3.7,1.5l0.3,0.1l0.3,0.1l0.3,0h0.3l0.3,0l0.3-0.1l0.3-0.1l0.3-0.1l3.2-1.8l3.1-1.8l2.9-1.8l2.8-1.7l4.8-3l4.7-3.1l4.7-3.2l4.7-3.3
	l4.7-3.4l4.7-3.5l4.7-3.5l4.7-3.6l4.6-3.7l4.6-3.8l4.6-3.9l4.6-3.9l4.6-4l4.6-4.1l4.6-4.2l4.5-4.2l10.7-10.1l9.5-9.1l4.3-4.2l4-4
	l3.8-3.7l3.5-3.5l5.9-5.9l6-6.1l6.2-6.3l6.3-6.5l6.4-6.7l6.6-6.9l6.7-7.1l6.9-7.3l1-1l1-1l1.1-1l1.2-1l0.5-0.4l0.5-0.4l0.5-0.3
	l0.5-0.3l0.5-0.3l0.5-0.2l0.5-0.2l0.5-0.2l0.5-0.1l0.5-0.1l0.5-0.1l0.5,0l0.5,0l0.5,0l0.5,0.1l0.5,0.1l0.7,0.2l0.7,0.3l0.6,0.4
	l0.6,0.4l0.6,0.5l0.6,0.6l0.5,0.6l0.5,0.7l0.4,0.6l0.3,0.6l0.3,0.6l0.2,0.6l0.2,0.6l0.1,0.6l0.1,0.6l0,0.6l0,0l0,0l0,0.6l-0.1,0.6
	l-0.1,0.6l-0.2,0.6l-0.2,0.6l-0.3,0.6l-0.3,0.6l-0.4,0.6l-1.3,2l-1.8,2.7l-2.1,3.2l-1.5,2.4l-1.3,2.2l-1.2,2l-2.9,5l-2.9,5.1
	l-2.9,5.1l-2.9,5.2l-2.9,5.2l-2.9,5.3l-2.9,5.4l-2.9,5.4l-2.5,4.6l-2.5,4.6L367,627l-2.6,4.5l-2.6,4.5l-2.7,4.5l-2.7,4.4l-2.7,4.4
	l-2.8,4.4l-2.8,4.3l-2.8,4.3l-2.9,4.2l-2.9,4.2l-2.9,4.2l-3,4.1l-3,4.1l-2.7,3.7l-2.8,3.7l-2.9,3.7l-3,3.7l-3.1,3.7l-3.2,3.7
	l-3.3,3.7l-3.4,3.7l0,0.1l0,0.1l0,0.1l0.1,0h0.1l2.6-0.6l3.5-0.7l3.5-0.7l2.6-0.5l2.3-0.6l1.1-0.3l1-0.3l2.1-0.7l2.1-0.7l2.1-0.7
	l2.1-0.7l2.1-0.8l2-0.8l2-0.8l2-0.8l0.3-0.1l0.2-0.1l0.2-0.2l0.2-0.2l0,0l0,0l0,0l0.1-0.2l0.1-0.2l0.1-0.2l0.1-0.3l0.6-2.9l0.6-2.9
	l0.7-2.8l0.7-2.8l0.7-2.8l0.8-2.8l0.8-2.8l0.9-2.7l0.7-2.2l0.8-2.2l0.8-2.2l0.8-2.2l0.8-2.1l0.8-2.1l0.8-2.1l0.9-2.1l0.9-2l0.9-2
	l0.9-2l0.9-2l0.9-2l1-2l1-1.9l1-1.9l1-1.9l1-1.9l1-1.9l1.1-1.9l1.1-1.8l1.1-1.8l1.1-1.8l1.1-1.8l1.2-1.8l1.2-1.8l1.2-1.7l1.2-1.7
	l1.2-1.7l1.2-1.7l1.2-1.7l1.3-1.7l1.6-2.1l1.7-2.1l1.8-2.2l1.9-2.2l2-2.3l2.1-2.4l2.2-2.4l2.3-2.5l0.6-0.6l0.6-0.6l0.7-0.6l0.7-0.6
	l0.8-0.6l0.8-0.6l2-1.5l0.3-0.2l0.2-0.2l0.2-0.2l0.2-0.3l0.2-0.3l0.2-0.3l0.1-0.3l0.1-0.3l0.7-2.1l0.7-2l0.7-1.8l0.7-1.7l0.7-1.7
	l0.7-1.6l0.7-1.5l0.7-1.5l0.7-1.4l0.7-1.4l0.7-1.3l0.7-1.3l0.7-1.3l0.8-1.2l0.8-1.2l0.8-1.2l1.7-2.5l1.8-2.4l1.8-2.3l1.8-2.3
	l1.9-2.2l1.9-2.2l1.9-2.1l2-2.1l1.2-1.2l1.2-1.2l1.3-1.2l1.3-1.2l1.3-1.2l1.3-1.2l1.3-1.2l1.3-1.2l1.4-1.2l1.4-1.1l1.4-1.1l1.4-1.1
	l1.5-1.1l1.5-1.1l1.5-1.1l1.5-1.1l3.5-2.5l3.2-2.2l2.9-2.1l2.8-2l2.6-2l2.5-1.9l2.4-1.9l2.4-1.8l2.3-1.9l2.3-1.9l2.2-1.9l2.2-1.8
	l2.1-1.9l2.1-1.9l2.1-1.9l2-1.9l0.5-0.4l0.5-0.4l0.5-0.4l0.5-0.3l0.5-0.3l0.5-0.3l0.5-0.2l0.5-0.2l0.5-0.2l0.4-0.1l0.4-0.1l0.4-0.1
	l0.4,0h0.4l0.4,0l0.4,0.1l0.4,0.1l0.4,0.2l0.4,0.2l0.4,0.2l0.4,0.3l0.4,0.3l0.3,0.3l0.3,0.4l0.4,0.5l0.3,0.5l0.3,0.5l0.2,0.5
	l0.2,0.5l0.1,0.5l0.1,0.5l0,0.5l0,0l0,0l0,0.6l-0.1,0.6l-0.1,0.6l-0.2,0.6l-0.2,0.6l-0.3,0.6l-0.4,0.6l-0.4,0.6l-1.5,1.8l-1.5,1.8
	l-1.5,1.7l-1.5,1.7l-1.5,1.6l-1.5,1.6l-1.5,1.6l-1.5,1.5l-1.5,1.5l-1.5,1.5l-1.5,1.4l-1.5,1.4l-1.5,1.3l-1.5,1.3l-1.5,1.2l-1.5,1.2
	l-5.1,4l-5.2,4l-5.3,4l-5.4,4.1l-2.2,1.7l-2.2,1.8l-2.2,1.9l-2.3,2.1l-2.3,2.2L441,560l-2.6,2.7l-3.6,3.7l-4.2,4.4l-0.5,0.5
	l-0.3,0.4l-0.2,0.3l0,0.1l0,0.1l0,0l0,0l0,0l0.1,0l0.1,0l0.3-0.1l0.5-0.2L431.1,571.4z M558.6,453.6l0.8-2l0.8-2.1l0.7-2.1l0.7-2.1
	l0.6-2.1l0.6-2.1l0.6-2.1l0.5-2.1l0.5-2.1l0.4-2.1l0.4-2.1l0.4-2.1l0.3-2.1l0.3-2.1l0.2-2.1l0.2-2.1l0,0l0,0l0,0l0,0l0,0l0.2-2.5
	l0.1-2.5l0.1-2.6l0-2.6l0-2.6L567,405l-0.1-2.6l-0.2-2.6l-0.2-2.6l-0.3-2.6l-0.3-2.6l-0.4-2.6l-0.5-2.6l-0.5-2.6l-0.6-2.6l-0.6-2.6
	l0,0l0,0l-0.3,0l-0.1,0l0,0l0,0.1l0.1,3.3l0.1,3.2l0.1,3.2l0,3.1l0,3.1v3l0,3l-0.1,2.9l-0.1,2.9l-0.1,2.9l-0.1,2.8l-0.2,2.8
	l-0.2,2.8l-0.2,2.7l-0.3,2.7l-0.3,2.7l-0.4,3.1l-0.4,3l-0.5,3l-0.5,3l-0.6,3l-0.7,3l-0.7,2.9l-0.8,2.9l0,0l-0.9,3l-0.9,3l-1,2.9
	L553,462l-1.1,2.9l-1.2,2.9l-1.2,2.9l-1.3,2.8v0l0,0l0.3,0.1l0.1,0l0.1,0l0.1-0.1l0.1-0.1l1.6-2.9l1.5-2.8l1.4-2.7l1.3-2.6l1.2-2.4
	l1.1-2.3l0.9-2.2L558.6,453.6z M325.9,656.4l3.3-5l3.5-5.4l3.8-5.9l5.1-8l5.4-8.5l4-6.3l0-0.1l0-0.1l0,0l0-0.1l-0.1-0.1l-0.2-0.2
	l-0.1,0l-0.1,0l-1.1,1.4l-1.1,1.4l-2.4,2.7l-2.4,2.7l-2.5,2.6l-6.1,6.2l-6,6l-3,2.9l-3,2.9l-3,2.9l-3,2.9l-3,2.8l-3,2.8l-3,2.8
	l-3,2.7L302,665l-2.9,2.7l-2.9,2.6l-2.9,2.6l-2.8,2.4l-2.8,2.4l-2.9,2.4l-2.9,2.4l-3,2.4l-3,2.3l-3,2.3l-3.1,2.3l-3.1,2.3l-3.1,2.3
	l-3.2,2.3L257,701l-3.3,2.3l-3.3,2.2l-3.4,2.2l-3.4,2.2l-0.2,0.1l-0.1,0.1l-0.1,0.1l0,0.1l0,0l0,0.1l0.1,0.1l0.2,0.1l0.2,0l3.9,0.6
	l3.9,0.5l4,0.5l4,0.4l4,0.4l4,0.3l4,0.2l4,0.2l0.6,0l0.6-0.1l0.5-0.1l0.5-0.2l0.5-0.2l0.5-0.3l0.5-0.3l0.5-0.4l0.5-0.5l0.6-0.6
	l4.4-4.5l3.9-4l1.7-1.8l1.6-1.7l1.4-1.6l1.3-1.5l2.3-2.6l2.2-2.6l2.2-2.6l2.1-2.6l2.1-2.5l2-2.5l2-2.5l2-2.5l1.9-2.5l1.9-2.5
	l1.8-2.4l1.8-2.4l1.7-2.4l1.7-2.4l1.6-2.3L325.9,656.4z"/>
<path d="M30.7,102.9l-0.6-1.4l-0.5-1.4l-0.5-1.3l-0.4-1.3l-0.4-1.3L28,94.9l-0.3-1.3l-0.3-1.3l-0.2-1.3L27,89.9l-0.1-1.2l-0.1-1.2
	l0-1.2l0-1.2l0.1-1.2l0.1-1.2l0.1-0.8l0.2-0.8l0.2-0.7l0.3-0.7l0.3-0.7l0.3-0.7l0.4-0.6l0.4-0.6l0.5-0.6l0.5-0.5l0.5-0.5l0.5-0.4
	l0.6-0.4l0.6-0.3l0.6-0.2l0.6-0.2l0.5-0.1l0.5-0.1l0.5,0l0.6,0l0.5,0.1l0.5,0.1l0.5,0.1l0.5,0.1l0.5,0.2l0.5,0.2l0.5,0.3l0.4,0.3
	l0.4,0.3l0.4,0.4l0.4,0.4l0.4,0.4l0.4,0.5l0.4,0.5l0.3,0.5l0.3,0.6l0.3,0.6l0.3,0.6l0.3,0.7l0.3,0.7l1,2.7l1.1,2.7l1.1,2.7l1.2,2.7
	l1.3,2.7l1.4,2.7l1.5,2.7l1.6,2.7l1.6,2.7l1.7,2.7l1.8,2.7l1.9,2.7l2,2.7l2.1,2.7l2.2,2.8l2.3,2.8l3.1,3.6l3,3.5l3,3.4l2.9,3.3
	l2.9,3.2l2.8,3.1l2.8,3l2.7,2.8l4.5,4.7l4.4,4.7l4.3,4.6l4.1,4.6l0.5,0.6l0.5,0.6l0.4,0.6l0.4,0.6l0.4,0.6l0.3,0.6l0.3,0.5l0.2,0.5
	l0.2,0.5l0.2,0.5l0.1,0.5l0.1,0.5l0,0.5l0,0.5l-0.1,0.5l-0.1,0.4l-0.1,0.5l-0.2,0.5l-0.2,0.4l-0.3,0.4l-0.5,0.6l-0.5,0.6l-0.5,0.5
	l-0.5,0.4l-0.6,0.4l-0.6,0.3l-0.6,0.2l-0.6,0.2l-0.5,0.1l-0.5,0.1l-0.5,0l-0.5,0l-0.5-0.1l-0.6-0.1l-0.6-0.1l-0.6-0.2l-0.6-0.2
	l-0.6-0.3l-0.6-0.3l-0.6-0.4l-0.6-0.4l-0.6-0.4l-0.7-0.5l-0.7-0.5l-4.1-3.2l-3.9-3.2l-3.8-3.1l-3.6-3.1l-3.5-3l-3.4-3l-3.3-3l-3.2-3
	l-3.1-3l-3-3l-2.9-3l-2.8-3l-2.8-3l-2.7-3.1l-2.6-3.1l-2.5-3.1l-1.3-1.7l-1.3-1.7l-1.2-1.7l-1.2-1.7l-1.2-1.7l-1.1-1.7l-1.1-1.7
	l-1.1-1.7l-1-1.7l-1-1.7l-1-1.7l-0.9-1.7l-0.9-1.7l-0.9-1.8l-0.8-1.8L30.7,102.9z"/>
<path d="M494.1,128.2l-2.4-1.2l-2.5-1.2l-2.5-1.2l-2.5-1.1l-2.5-1.1l-2.5-1.1l-2.5-1.1l-2.5-1l-2.5-1l-2.5-1l-2.6-1l-2.6-0.9
	l-2.6-0.9l-2.6-0.9l-2.6-0.9l-2.6-0.8l-2.7-0.8l-2.6-0.8l-2.7-0.8l-2.7-0.7l-2.7-0.7l-2.7-0.7l-2.7-0.7l-2.7-0.6l-2.7-0.6l-2.7-0.6
	l-2.7-0.6l-2.7-0.5l-2.8-0.5l-2.8-0.5l-2.8-0.5l-2.8-0.4l-3.4-0.5l-3.3-0.4l-3.3-0.4l-3.3-0.4l-3.3-0.3l-3.3-0.3l-3.2-0.2l-3.2-0.2
	l-3.2-0.2l-3.2-0.1l-3.1-0.1l-3.1,0l-3.1,0l-3.1,0l-3.1,0.1l-3,0.1l-3.9,0.2l-3.9,0.3l-3.9,0.3l-3.8,0.4l-3.8,0.4l-3.8,0.4l-3.8,0.5
	l-3.7,0.5l-3.7,0.6l-3.7,0.6l-3.6,0.7l-3.6,0.7l-3.6,0.8l-3.6,0.8l-3.5,0.8l-3.5,0.9l-2.8,0.7l-2.8,0.8l-2.8,0.8l-2.7,0.8l0,0l0,0
	l0,0l0,0l-2.3,0.7l-2.3,0.7l-2.3,0.8l-2.3,0.8l-2.3,0.8l-2.3,0.8l-2.3,0.8l-2.3,0.9l-2.3,0.9l-2.3,0.9l-2.3,0.9l-2.3,0.9l-2.3,1
	l-2.2,1l-2.2,1l-2.2,1l-0.8,0.3l-0.7,0.3l-0.7,0.3l-0.7,0.2l-0.7,0.2l-0.7,0.2l-0.7,0.1l-0.6,0.1l-0.7,0.1l-0.6,0l-0.6,0l-0.6-0.1
	l-0.6-0.1l-0.6-0.1l-0.6-0.1l-0.6-0.2l-0.4-0.2l-0.4-0.2l-0.4-0.2l-0.4-0.2l-0.4-0.2l-0.4-0.3l-0.7-0.6l-0.5-0.5l-0.5-0.5l-0.5-0.5
	l-0.4-0.6l-0.4-0.6l-0.3-0.6l-0.3-0.6l-0.2-0.6l-0.1-0.4l-0.1-0.4l-0.1-0.5l-0.1-0.5l0-0.5l0-0.5l0-0.5l0-0.5l0.1-0.5l0.1-0.5
	l0.1-0.5l0.1-0.5l0.2-0.5l0.2-0.4l0.2-0.5l0.2-0.4l0.2-0.4l0.3-0.4l0.3-0.4l0.3-0.4l0.3-0.4l0.3-0.4l0.3-0.4l0.4-0.4l0.4-0.3
	l0.4-0.3l0.4-0.3l0.4-0.3l0.4-0.3l0.4-0.3l0.4-0.2l0.5-0.2l2.5-1.1l2.5-1.1l2.5-1.1l2.5-1.1l2.5-1l2.5-1l2.5-1l2.5-1l2.5-1l2.6-0.9
	l2.6-0.9l2.6-0.9l2.6-0.9l2.6-0.8l2.6-0.8l2.6-0.8l2.6-0.8l2.6-0.8l2.6-0.7l2.6-0.7l2.6-0.7l2.6-0.7l2.6-0.6l2.7-0.6l2.7-0.6
	l2.7-0.6l2.7-0.5l2.7-0.5l2.7-0.5l2.7-0.5l2.7-0.4l2.7-0.4l2.7-0.4l2.7-0.4l2.7-0.3l2.7-0.3l2.7-0.3l2.7-0.3l2.7-0.2l2.7-0.2
	l2.7-0.2l2.7-0.2l2.7-0.2l2.7-0.1l2.7-0.1l2.7-0.1l2.7-0.1l2.7,0l2.7,0l2.7,0l2.7,0l2.7,0.1l2.7,0.1l2.7,0.1l2.7,0.1l2.7,0.2
	l2.7,0.2l2.7,0.2l2.7,0.2l2.7,0.3l2.7,0.3l2.7,0.3l2.7,0.3l2.7,0.4l4.2,0.6l4.2,0.7l4.2,0.7l4.2,0.8l4.2,0.8l4.2,0.9l4.1,1l4.1,1
	l4.1,1.1l4.1,1.1l4,1.2l4,1.2l4,1.3l4,1.4l4,1.4l3.9,1.4l0,0l0,0l0,0l3.7,1.4l3.6,1.4l3.6,1.5l3.6,1.6l3.6,1.6l3.5,1.6l3.5,1.7
	l3.5,1.8l3.5,1.8l3.5,1.8l3.5,1.9l3.5,1.9l3.4,2l3.4,2l3.4,2.1l3.4,2.1l3.2,2l3.2,2.1l3.2,2.2l3.3,2.3l3.3,2.4l3.3,2.5l3.4,2.6
	l3.4,2.7l3.1,2.5l3.1,2.6l0,0l0,0l0,0l0,0l3.6,3l3.5,3.1l3.5,3.2l3.4,3.2l3.4,3.3l3.3,3.3l3.3,3.4l3.3,3.4l3.2,3.5l3.2,3.6l3.1,3.6
	l3.1,3.7l3,3.7l3,3.8l2.9,3.9l2.9,3.9l0.5,0.6l1.1,1.6l0.8,1.2l0.3,0.6l0.3,0.6l0.3,0.5l0.2,0.5l0.2,0.5l0.2,0.5l0.2,0.5l0.1,0.5
	l0.1,0.5l0.1,0.5l0,0.5v0.5l-0.1,0.7l-0.1,0.7l-0.1,0.5l-0.1,0.5l-0.2,0.5l-0.2,0.5l-0.2,0.5l-0.2,0.5l-0.2,0.4l-0.3,0.4l-0.3,0.4
	l-0.3,0.4l-0.3,0.4l-0.3,0.4l-0.4,0.4l-0.4,0.4l-0.4,0.3l-0.4,0.3l-0.4,0.3l-0.4,0.3l-0.4,0.3l-0.4,0.2l-0.5,0.2l-0.5,0.2l-0.5,0.2
	l-0.5,0.2l-0.5,0.1l-0.5,0.1l-0.5,0.1l-0.5,0.1l-0.5,0h-0.5l-0.5,0l-0.5,0l-0.8-0.1l-0.8-0.2l-0.8-0.3l-0.8-0.4l-0.6-0.3l-0.6-0.5
	l-0.7-0.6l-0.7-0.7l-0.7-0.8l-0.8-0.9l-0.8-1l-0.8-1.1l-1.2-1.6l-1.2-1.6l-1.3-1.7l-1.3-1.7l-1.8-2.3l-1.8-2.3l-1.8-2.3l-1.9-2.2
	l-1.9-2.2l-1.9-2.2l-1.9-2.2l-1.9-2.1l-1.9-2.1l-2-2.1l-2-2.1l-2-2l-2-2l-2-2l-2-2l-2.1-2l-2.1-1.9l-2.1-1.9l-2.1-1.9l-2.1-1.9
	l-2.1-1.9l-2.1-1.8l-2.2-1.8l-2.2-1.8l-2.2-1.8l-2.2-1.7l-2.2-1.7l-2.2-1.7l-2.2-1.7l-2.3-1.7l-2.3-1.6l-2.3-1.6l0,0l0,0l0,0l0,0
	l-2.2-1.5l-2.2-1.5l-2.2-1.4l-2.2-1.4l-2.2-1.4l-2.2-1.4l-2.2-1.4l-2.2-1.4l-2.3-1.3l-2.3-1.3l-2.3-1.3l-2.3-1.3l-2.3-1.3l-2.3-1.2
	l-2.4-1.2L494.1,128.2z"/>
<path d="M104.6,199l22.5,9.8l22.9,9.9l2.6,1.2l2.7,1.2l2.7,1.3l2.8,1.3l2.8,1.4l2.9,1.4l3,1.5l3,1.5l6.2,3.2l6.7,3.6l7.4,4l10.1,5.5
	l10.6,5.8l7.8,4.2l1.2,0.7l1.2,0.7l1.1,0.6l1.1,0.7l1,0.7l1,0.7l0.9,0.7l0.9,0.7l0.4,0.3l0.3,0.3l0.3,0.4l0.3,0.4l0.2,0.4l0.2,0.4
	l0.2,0.4l0.1,0.4l0.1,0.4l0,0.4l0,0.4l0,0.4L232,266l-0.1,0.4l-0.1,0.4l-0.2,0.4l-0.2,0.4l-0.2,0.4l-0.2,0.3l-0.3,0.3l-0.3,0.3
	l-0.3,0.3l-0.3,0.2l-0.4,0.2l-0.4,0.2l-0.4,0.1l-0.4,0.1l-0.4,0.1l-0.4,0l-0.4,0l-0.4,0l-0.4-0.1l-0.9-0.2l-0.9-0.2l-0.9-0.2
	l-0.9-0.3l-0.9-0.3l-1-0.3l-2-0.7l-17.2-6.7l-12.7-5l-9.3-3.6l-8.4-3.2l-7.7-2.9l-7.4-2.8l-7.2-2.7l-7-2.7l-6.7-2.6l-6.5-2.6
	l-6.2-2.5l-6-2.5l-5.8-2.4l-5.2-2.2l-4.8-2.1l-4.6-2l-4.3-2l-4.2-2l-4-2l-3.9-2l-3.7-2l-3.6-2l-3.5-2l-3.4-2l-3.3-2l-3.2-2l-3.1-2.1
	l-3-2.1l-2.9-2.1l-2.9-2.1l-2.8-2.2l-2.7-2.2l-2.6-2.2l-2.6-2.3l-2.5-2.3l-2.4-2.3l-2.3-2.4l-1.1-1.2l-1.1-1.2l-1.1-1.2l-1.1-1.2
	l-1.1-1.2l-1.1-1.2l-1-1.2l-1-1.3l-1-1.3l-1-1.3l-1-1.3l-0.9-1.3l-0.9-1.3l-0.9-1.3l-0.9-1.3l-0.9-1.3l-1.2-1.9l-1.1-1.9l-1-1.9
	l-0.4-0.9l-0.4-0.9l-0.4-0.9l-0.4-0.9l-0.3-0.9l-0.3-0.9l-0.3-0.8L6.8,142l-0.2-0.8l-0.2-0.8l-0.2-0.8l-0.1-0.7l-0.1-0.8L6,137.4
	l0-0.7V136l0-0.7l0.1-0.7l0.1-0.6l0.1-0.6l0.1-0.6l0.2-0.6l0.2-0.6l0.2-0.5l0.3-0.5l0.3-0.5l0.3-0.4l0.3-0.4l0.3-0.4l0.3-0.4
	l0.4-0.4l0.4-0.4l0.4-0.3l0.4-0.3l0.5-0.3l0.5-0.3l0.5-0.2l0.5-0.2l0.6-0.1l0.6-0.1h0.6l0.6,0.1l0.6,0.1l0.6,0.2l0.6,0.2l0.6,0.3
	l0.6,0.4l0.6,0.4l0.6,0.5l0.6,0.5l0.5,0.5l0.5,0.6l0.4,0.6l0.4,0.6l1.5,2.6l1.6,2.6l1.7,2.6l1.7,2.6L30,144l1.9,2.5l1.9,2.4l2,2.4
	l2.1,2.4l2.1,2.3l2.2,2.3l2.3,2.3l2.3,2.2l2.4,2.2l2.5,2.2l2.5,2.1l2.6,2.1l2.7,2.1l2.8,2l2.8,2l2.9,2l3,1.9l3,1.9l3.1,1.9l3.2,1.8
	l3.2,1.8l3.3,1.8l3.4,1.7l3.5,1.7l3.5,1.7l3.6,1.7L104.6,199z"/>
<circle cx="265.6" cy="274.4" r="6.4"/>
<path d="M360.2,510.7l2.1-0.2l2.1-0.2l2.1-0.2l2.1-0.3l2-0.3l2-0.3l2-0.3l2-0.3l2-0.4l2-0.4l2-0.4l2-0.4l2-0.4l2-0.5l2-0.5l1.9-0.5
	l1.9-0.5l1.9-0.5l1.9-0.6l1.9-0.6l1.9-0.6l1.9-0.6l1.9-0.7l1.9-0.7l1.9-0.7l1.8-0.7l1.8-0.7l1.8-0.8l1.8-0.8l1.8-0.8l1.8-0.8
	l1.8-0.8l0,0l0,0l0,0l3.1-1.5l3-1.6l3-1.6l3-1.7l3-1.8l2.9-1.8l2.9-1.9l2.9-1.9l2.8-2l2.8-2.1l2.8-2.1l2.7-2.2l2.7-2.2l2.7-2.3
	l2.7-2.4l2.6-2.4l1.5-1.5l1.5-1.5l1.5-1.5l1.5-1.5l1.5-1.6l1.5-1.6l1.5-1.6l1.5-1.6l1.4-1.6l1.4-1.7l1.4-1.7l1.4-1.7l1.4-1.7
	l1.4-1.7l1.4-1.8l1.3-1.8l1.3-1.8l1.3-1.8l1.3-1.8l1.3-1.9l1.3-1.9l1.3-1.9l1.2-1.9l1.2-1.9l1.2-1.9l1.2-2l1.2-2l1.2-2l1.1-2l1.1-2
	l1.1-2.1l1.1-2.1l0.4-0.8l0.5-0.7l0,0l0,0l0.5-0.7l0.5-0.6l0.5-0.6l0.6-0.6l0.5-0.4l0.5-0.4l0.5-0.3l0.5-0.2l0.5-0.2l0.5-0.1
	l0.5-0.1l0.5-0.1l0.5,0l0.5,0l0.5,0.1l0.5,0.1l0.5,0.1l0.5,0.2l0.5,0.2l0.5,0.2l0.5,0.3l0.4,0.3l0.4,0.4l0.4,0.4l0.4,0.5l0.4,0.5
	l0.3,0.5l0.3,0.5l0.3,0.5l0.2,0.5l0.2,0.5l0.2,0.5l0,0l0,0l0,0l0,0l0.1,0.7l0.1,0.7v0.7l-0.1,0.8l-0.1,0.8l-0.2,0.8l-0.3,0.8
	l-0.3,0.8l-1,2.2l-1,2.2l-1,2.2l-1,2.2l-1.1,2.2l-1.1,2.1l-1.1,2.1l-1.1,2.1l-1.2,2.1l-1.2,2.1l-1.2,2.1l-1.2,2l-1.3,2l-1.3,2
	l-1.3,2l-1.3,2l-1.4,2l-1.4,2l-1.4,1.9l-1.4,1.9l-1.4,1.9l-1.5,1.9l-1.5,1.9l-1.5,1.8l-1.5,1.8l-1.6,1.8l-1.6,1.8l-1.6,1.8l-1.6,1.7
	l-1.6,1.7l-1.7,1.7l-1.7,1.7l-1.7,1.7l-1.7,1.6l-1.7,1.6l-1.8,1.6l-1.8,1.6l-1.8,1.5l-1.8,1.5l-1.8,1.5l-1.9,1.5l-1.9,1.5l-1.9,1.4
	l-1.9,1.4l-1.9,1.4l-1.9,1.3l-2,1.3l-2,1.3l-2,1.3l-2,1.2l-2,1.2l-2,1.2l-2,1.2l-2.1,1.1l-2.1,1.1l-2.1,1.1l-2.1,1.1l-2.1,1l-2.1,1
	l-2.1,1l-2.1,1l-2.2,0.9l-2.2,0.9l-2.2,0.9l-2.8,1l-2.8,1l-2.8,1l-2.8,0.9l-3,0.9l-3,0.9l-3.1,0.9l-3.1,0.8l-3.1,0.8l-3.1,0.8
	l-3.1,0.7l-3.1,0.7l-3.1,0.6l-3.1,0.6l-3.1,0.5l-3.1,0.5L368,529l-3,0.4l-3,0.3l-3,0.3l-4,0.3l-4.1,0.3l-4.1,0.2l-4.2,0.2l-4.2,0.1
	l-4.3,0.1l-4.4,0l-4.5-0.1l-4.5-0.1l-4.7-0.2l-4.9-0.2l-5.2-0.2l-5.4-0.3l-5.8-0.4l-6.5-0.4l-8-0.6l-1.1-0.1l-1-0.1l-1-0.2l-1-0.2
	l-0.9-0.2l-0.9-0.3l-0.8-0.3l-0.8-0.4l-0.6-0.3l-0.6-0.4l-0.5-0.4l-0.5-0.4l-0.4-0.5l-0.4-0.5l-0.3-0.5l-0.3-0.5l-0.2-0.5l-0.2-0.5
	l-0.1-0.5l-0.1-0.5l0-0.6v-0.5l0-0.6l0.1-0.5l0.1-0.5l0.2-0.5l0.2-0.5l0.2-0.5l0.3-0.5l0.3-0.5l0.4-0.4l0.4-0.4l0.5-0.4l0.5-0.4
	l0.5-0.3l0.6-0.3l0.6-0.2l0.6-0.2l0.6-0.1l0.6-0.1l2.9-0.3l2.8-0.3l2.8-0.4l2.8-0.4l2.7-0.4l2.7-0.4l2.7-0.5l2.7-0.5l2.7-0.5
	l2.6-0.5l2.6-0.6l2.6-0.6l2.6-0.6l2.6-0.7l2.6-0.7l2.6-0.7l2.8-0.8l2.8-0.8l2.8-0.9l2.8-0.9l2.4-0.8l2.4-0.8l2.4-0.9l2.4-0.9
	l2.4-0.9l2.4-0.9l2.4-1l2.4-1l2.4-1l2.4-1l2.4-1l2.4-1l2.3-1.1l2.3-1.1l2.3-1.1l2.3-1.1l2.3-1.2l2.3-1.2l2.3-1.2l2.3-1.2l2.3-1.2
	l2.3-1.3l2.3-1.3l2.3-1.3l2.3-1.3l2.3-1.4l2.2-1.4l2.2-1.4l2.2-1.4l2.2-1.4l2.2-1.5l2.2-1.5l2-1.3l1.9-1.3l1.9-1.4l1.9-1.4l1.9-1.4
	l1.9-1.4l1.9-1.5l1.9-1.5l1.9-1.5l1.9-1.5l1.9-1.6l1.9-1.6l1.9-1.6l1.8-1.6l1.8-1.7l1.8-1.7l1.8-1.7l1.8-1.7l1.8-1.8l1.8-1.8
	l1.8-1.8l1.8-1.8l1.8-1.8l1.7-1.9l1.7-1.9l1.7-1.9l1.7-1.9l1.7-1.9l1.6-1.9l1.6-1.9l1.6-2l1.6-2l1.6-2l1.6-2.1l1.6-2.1l1.6-2.2
	l1.6-2.2l1.6-2.3l1.5-2.3l1.5-2.4l1.5-2.4l1.5-2.5l1.5-2.5l1.5-2.6l1.5-2.6l1.5-2.7l1.5-2.7l1.5-2.8l0.3-0.6l0.4-0.6l0.4-0.6
	l0.4-0.5l0.5-0.5l0.5-0.5l0.5-0.4l0.5-0.4l0.5-0.3l0.5-0.3l0.5-0.2l0.5-0.2l0.5-0.1l0.5-0.1l0.5-0.1l0.5,0l0.5,0l0.5,0.1l0.5,0.1
	l0.5,0.2l0.5,0.2l0.5,0.2l0.5,0.3l0.5,0.3l0.5,0.4l0.4,0.4l0.4,0.4l0.4,0.4l0.3,0.4l0.3,0.4l0.3,0.5l0.2,0.5l0.2,0.5l0.2,0.5
	l0.1,0.5l0.1,0.5l0.1,0.5l0,0.5v0.6l0,0.6l-0.1,0.6l-0.1,0.6l-0.1,0.6l-0.2,0.6l-0.2,0.6l-0.2,0.7l-0.2,0.7l-0.3,0.7l-0.9,2l-0.9,2
	l0,0l0,0l0,0l0,0l-0.9,1.9l-0.9,1.9l-0.9,1.9l-1,1.9l-1,1.9l-1,1.9l-1,1.8l-1,1.8l-1,1.8l-1.1,1.8l-1.1,1.8l-1.1,1.8l-1.1,1.8
	l-1.1,1.8l-1.2,1.8l-1.2,1.8l-1.2,1.8l-1.2,1.7l-1.2,1.7l-1.3,1.7l-1.3,1.7l-1.3,1.7l-1.3,1.7l-1.3,1.7l-1.4,1.7l-1.4,1.7l-1.4,1.7
	l-1.4,1.6l-1.5,1.6l-1.5,1.6l-1.5,1.6l-1.5,1.6l-2.5,2.6l-2.5,2.5l-2.5,2.5l-2.5,2.4l-2.5,2.4l-2.5,2.3l-2.5,2.3l-2.5,2.2l-2.5,2.2
	l-2.5,2.1l-2.6,2.1l-2.5,2l-2.6,2l-2.6,1.9l-2.6,1.9l-2.6,1.8l-4.5,3l-4.5,3l-4.6,2.9l-4.6,2.8l0,0l0,0l-2.5,1.5l-2.5,1.5l-2.5,1.4
	l-2.5,1.4l-2.5,1.4l-2.5,1.4l-2.5,1.4l-2.6,1.3l-2.6,1.3l-2.6,1.3l-2.6,1.3l-2.6,1.3l-2.6,1.2l-2.6,1.2l-2.6,1.2l-2.7,1.2l-0.6,0.3
	l-0.4,0.2l-0.2,0.2l0,0.1l0,0.1l0,0l0,0l0,0l0,0.1l0.1,0l0.3,0h0.5L360.2,510.7z"/>
<path d="M669,410.4l-0.2,2.6l-0.3,2.6l-0.3,2.6l-0.3,2.6l-0.3,2.5l-0.3,2.5l-0.4,2.5l-0.4,2.5l-0.4,2.5l-0.4,2.5l-0.4,2.5l-0.5,2.5
	l-0.5,2.5l-0.5,2.5l-0.5,2.5l-0.5,2.5l-0.6,2.5l-0.6,2.5l-0.6,2.4l-0.6,2.5l-0.6,2.4l-0.7,2.4l-0.7,2.4l-0.7,2.4l-0.7,2.4l-0.7,2.4
	l-0.8,2.4l-0.8,2.4l-0.8,2.4l-0.8,2.4l-0.8,2.4l-0.8,2.4l0,0l0,0l0,0l-0.9,2.4l-0.9,2.4l-0.9,2.4l-0.9,2.4l-1,2.3l-1,2.3l-1,2.3
	l-1,2.3l-1,2.3l-1.1,2.3l-1.1,2.3l-1.1,2.3l-1.1,2.3l-1.1,2.3l-1.2,2.3l-1.2,2.3l-2.2,4l-2.2,4l-2.2,3.9l-2.3,3.9l-2.3,3.8l-2.4,3.8
	l-2.5,3.8l-2.5,3.7l-2.5,3.7l-2.6,3.6l-2.7,3.6l-2.7,3.5l-2.8,3.5l-2.8,3.5l-2.9,3.4l-2.9,3.4l0,0l0,0l0,0l0,0l0,0l0,0l-2.7,3.1
	l-2.8,3l-2.8,3l-2.9,3l-2.9,2.9l-3,2.9l-3,2.9l-3,2.8l-3.1,2.8l-3.1,2.7l-3.2,2.7l-3.2,2.7l-3.2,2.6l-3.3,2.6l-3.3,2.5l-3.4,2.5
	l-3.3,2.4l-3.3,2.3l-3.4,2.3l-3.4,2.2l-3.4,2.2l-3.5,2.2l-3.5,2.1l-3.6,2.1l-3.6,2l-3.7,2l-3.7,1.9l-3.7,1.9l-3.8,1.8l-3.8,1.8
	l-3.8,1.7l-3.9,1.7l-3.9,1.6l-3.9,1.6l-4,1.5l-4,1.5l-4,1.4l-4,1.4l-4.1,1.3l-4.1,1.3L452,676l-4.1,1.2l-4.2,1.1l-4.2,1.1l-4.2,1
	l-4.2,1l-4.2,0.9l-4.3,0.9l-1.1,0.2l-1.1,0.2l-1,0.1l-1,0.1l-0.9,0l-0.8,0l-0.8-0.1l-0.7-0.1l-0.6-0.2l-0.6-0.2l-0.6-0.2l-0.6-0.3
	l-0.6-0.3l-0.5-0.3l-0.5-0.4l-0.5-0.4l-0.5-0.4l-0.5-0.5l-0.4-0.5l-0.4-0.5l-0.3-0.6l-0.3-0.6l-0.3-0.6l-0.2-0.6l-0.2-0.6l-0.2-0.6
	l-0.1-0.6l-0.1-0.7l0-0.9l0-0.9l0.1-0.9l0.2-0.9l0.2-0.5l0.2-0.5l0.2-0.5l0.2-0.5l0.2-0.4l0.3-0.4l0.3-0.4l0.3-0.4l0,0l0,0l0,0
	l0.3-0.3l0.3-0.3l0.6-0.5l0.7-0.5l0.7-0.4l0.8-0.4l0.9-0.3l0.9-0.3l1-0.2l5-1l4.9-1.1l4.9-1.1l4.8-1.2l4.7-1.3l4.7-1.3l4.6-1.4
	l4.6-1.4l3.1-1l3.1-1l3.1-1.1l3-1.1l3-1.1l3-1.2l3-1.2l3-1.2l3-1.3l2.9-1.3l2.9-1.3l2.9-1.4l2.9-1.4l2.9-1.4l2.8-1.5l2.8-1.5l0,0
	l0,0l0,0l0,0l2.6-1.4l2.6-1.5l2.6-1.5l2.6-1.5l2.6-1.5l2.5-1.6l2.5-1.6l2.5-1.6l2.5-1.7l2.5-1.7l2.5-1.7l2.5-1.8l2.4-1.8l2.4-1.8
	l2.4-1.8l2.4-1.9l2-1.6l2-1.6l1.9-1.6l1.9-1.6l1.9-1.6l1.9-1.7l1.9-1.7l1.9-1.7l1.9-1.7l1.8-1.7l1.8-1.7l1.8-1.8l1.8-1.8l1.8-1.8
	l1.8-1.8l1.8-1.8l1.7-1.8l1.7-1.9l1.7-1.9l1.7-1.9l1.7-1.9l1.7-1.9l1.6-1.9l1.6-1.9l1.6-2l1.6-2l1.6-2l1.5-2l1.5-2l1.5-2l1.5-2
	l1.5-2.1l1.5-2.1l1.4-2.1l1.4-2.1l1.4-2.1l1.4-2.1l1.4-2.1l1.3-2.1l1.3-2.1l1.3-2.2l1.3-2.2l1.3-2.2l1.2-2.2l1.2-2.2l1.2-2.2
	l1.2-2.2l1.2-2.2l1.1-2.2l1.1-2.2l1.1-2.2l1.1-2.2l1-2.2l1-2.3l1-2.3l1-2.3l1-2.3l0.9-2.3l0.9-2.3l0.9-2.3l0.9-2.3l0.8-2.3l0.8-2.3
	l0.8-2.3l1.2-3.7l1.2-3.7l1.2-3.7l1.1-3.7l1-3.7l1-3.8l1-3.8l0.9-3.8l0.8-3.8l0.8-3.8l0.8-3.8l0.7-3.8l0.7-3.8l0.6-3.8l0.6-3.8
	l0.5-3.8l0,0l0,0l0,0l0.5-4.8l0.5-4.8l0.4-4.8l0.3-4.8l0.2-4.8l0.2-4.8l0.1-4.8l0-4.9l0-0.6l0-0.6l0.1-0.6l0.1-0.6l0.1-0.6l0.1-0.5
	l0.2-0.5l0.2-0.5l0.2-0.5l0.2-0.5l0.3-0.5l0.3-0.5l0.3-0.5l0.3-0.4l0.4-0.4l0.4-0.4l0.6-0.6l0.7-0.5l0.8-0.5l0.8-0.4l0.8-0.3
	l0.9-0.3l0.9-0.2l0.9-0.1l0.9,0l0.9,0l0.9,0.1l0.9,0.2l0.8,0.3l0.8,0.3l0.8,0.4l0.7,0.5l0.5,0.4l0.5,0.4l0.4,0.5l0.4,0.5l0.4,0.5
	l0.4,0.5l0.3,0.6l0.3,0.6l0.3,0.6l0.2,0.7l0.2,0.7l0.2,0.7l0.1,0.7l0.1,0.8l0.1,0.8l0,0.8l0,4.7l0,4.4l0,4.2l-0.1,3.9l-0.1,3.7
	l-0.2,3.4l-0.2,3.2L669,410.4z"/>
<path d="M104,395.4l-2.3-0.6l-2.1-0.6l-2-0.7l-1.9-0.7l-1.8-0.7l-1.7-0.7l-1.6-0.8l-1.6-0.8l-1.5-0.9L86,388l-1.4-0.9l-1.3-1l-1.2-1
	l-1.2-1.1l-1.1-1.1l-1.1-1.2l-0.4-0.5l-0.4-0.5l-0.4-0.5l-0.3-0.5l-0.3-0.6l-0.3-0.6l-0.2-0.6l-0.2-0.6l-0.1-0.6l-0.1-0.6l-0.1-0.5
	l0-0.5l0-0.5l0.1-0.5l0.1-0.5l0.1-0.5l0.2-0.5l0.2-0.3l0.2-0.3l0.2-0.3l0.2-0.3l0.3-0.3l0.3-0.3l0.3-0.3l0.3-0.3l0.3-0.2l0.3-0.2
	l0.4-0.2l0.4-0.2l0,0l0,0l0,0l0,0l0.5-0.2l0.5-0.1l0.6-0.1l0.6,0l0.6,0l0.6,0.1l0.6,0.2l0.7,0.2l3,1l3,1l3,0.9l3,0.9l3,0.8l3,0.8
	l3,0.8l3,0.7l3,0.7l3,0.7l3,0.6l3,0.6l3,0.6l2.9,0.5l3,0.5l2.9,0.4l4,0.6l4.1,0.5l4.1,0.5l4.1,0.5l4.2,0.5l4.2,0.5l4.2,0.5l4.3,0.4
	l4.3,0.4l4.3,0.4l4.4,0.4l4.4,0.3l4.5,0.3l4.5,0.3l4.5,0.3l4.6,0.2l4.6,0.2l4.7,0.2l4.7,0.2l4.7,0.2l4.8,0.1l4.8,0.1l4.9,0.1
	l4.9,0.1l5,0.1l5,0l5.1,0h5.2l5.2,0l5.3,0l10.9-0.1l5.3-0.1l5.3-0.1l5.3-0.2l5.3-0.2l5.2-0.2l5.2-0.3l5.2-0.3l5.2-0.3l5.2-0.4
	l5.1-0.4l5.1-0.4l5.1-0.5l5.1-0.5l5.1-0.5l5-0.5l5-0.6l0.8-0.1l1.8-0.2l1.3-0.1l1.2,0l0.5,0l0.5,0l0.5,0.1l0.5,0.1l0.4,0.1l0.4,0.1
	l0.4,0.2l0.3,0.2l0.3,0.2l0.3,0.2l0.4,0.4l0.4,0.4l0.3,0.4l0.3,0.4l0.2,0.4l0.2,0.4l0.1,0.5l0.1,0.5l0,0.5l0,0.5l-0.1,0.5l-0.2,0.5
	l-0.2,0.5l-0.3,0.5l-0.3,0.5l-0.4,0.5l-0.4,0.4l-0.5,0.4l-0.5,0.4l-0.5,0.3l-0.5,0.3l-0.6,0.2l-0.6,0.2l-0.6,0.1l-4.7,0.8l-4.7,0.7
	l-4.7,0.7l-4.7,0.7l-4.7,0.7l-4.7,0.6l-4.7,0.6l-4.7,0.6l-4.7,0.6l-4.7,0.5l-4.7,0.5l-4.7,0.5l-4.7,0.5l-4.6,0.5l-4.6,0.4l-4.6,0.4
	l-4.6,0.4l-4.6,0.3l-4.6,0.3l-4.6,0.3l-4.6,0.3l-4.6,0.3l-4.6,0.2l-4.6,0.2l-4.6,0.2l-4.6,0.2l-4.6,0.2l-4.6,0.1l-4.6,0.1l-4.6,0.1
	l-4.6,0l-4.6,0h-5l-5,0l-4.9-0.1l-4.9-0.1l-4.8-0.1l-4.8-0.1l-4.8-0.2l-4.7-0.2l-4.7-0.2l-4.7-0.3l-4.6-0.3l-4.6-0.3l-4.5-0.3
	l-4.5-0.4l-4.5-0.4l-4.4-0.4l-2.8-0.3l-2.7-0.3l-2.7-0.3l-2.7-0.4l-2.7-0.4l-2.6-0.4l-2.6-0.4l-2.6-0.5l-2.6-0.5l-2.5-0.5l-2.5-0.5
	l-2.5-0.5l-2.5-0.6l-2.5-0.6l-2.4-0.6L104,395.4z"/>
<path d="M435.8,386.5l1.7-0.6l1.3-0.4l0.6-0.2l0.5-0.1l0.5-0.1l0.5-0.1l0.5,0l0.5,0h0.5l0.4,0l0.4,0.1l0.4,0.1l0.4,0.1l0.4,0.1
	l0.5,0.3l0.5,0.3l0.5,0.4l0.5,0.5l0.4,0.5l0.4,0.6l0.4,0.7l0.4,0.8l0.2,0.4l0.1,0.5l0.1,0.5l0,0.5l0,0.4l-0.1,0.4l-0.1,0.4l-0.1,0.4
	l-0.2,0.4l-0.2,0.4l-0.3,0.4l-0.3,0.4l-0.4,0.4l-0.4,0.4l-0.4,0.4l-0.5,0.4l-0.5,0.4l-0.5,0.3l-0.5,0.3l-0.5,0.3l-3.1,1.5l-3,1.5
	l-3,1.4l-3,1.4l-3,1.3l-3,1.2l-3,1.2l-3,1.1l-4.1,1.5l-4.1,1.5l-4.2,1.4l-4.2,1.4l-4.2,1.3l-4.2,1.3l-4.3,1.3l-4.3,1.2l-4.3,1.2
	l-4.4,1.1l-4.4,1.1l-4.4,1.1l-4.4,1l-4.5,1l-4.5,0.9l-4.5,0.9l-5.4,1l-5.4,1l-5.4,0.9l-5.5,0.9L323,432l-5.5,0.8l-5.5,0.8l-5.6,0.8
	l-5.6,0.7l-5.6,0.7l-5.6,0.7l-5.7,0.6l-5.7,0.6l-5.7,0.5l-5.8,0.5l-5.8,0.5l-5.5,0.4l-5.5,0.4l-5.5,0.3l-5.5,0.3l-5.5,0.3l-5.4,0.2
	l-5.4,0.2l-5.4,0.2l-5.4,0.1l-5.4,0.1l-5.4,0l-5.4,0l-5.3,0l-5.3-0.1l-5.3-0.1l-5.3-0.1l-3.8-0.1l-3.6-0.2l-3.4-0.2l-3.2-0.2
	l-3.1-0.3l-3-0.3l-2.9-0.3l-2.8-0.4l-2.7-0.4l-2.6-0.5l-2.5-0.5l-2.5-0.6l-2.4-0.6l-2.3-0.7l-2.2-0.7l-2.2-0.7l-0.5-0.2l-0.5-0.2
	l-0.5-0.3l-0.6-0.3l-0.6-0.3l-0.6-0.3l-0.6-0.3l-0.5-0.4l-1-0.8l-0.5-0.4l-0.5-0.4l-0.5-0.4l-0.4-0.4l-0.4-0.4l-0.4-0.4l-0.3-0.4
	l-0.3-0.4l-0.3-0.4l-0.3-0.5l-0.2-0.4l-0.2-0.5l-0.2-0.4l-0.2-0.5l-0.1-0.4l-0.1-0.4l-0.1-0.4l-0.1-0.4l0-0.4l0-0.4l0-0.4l0.1-0.4
	l0.1-0.5l0.1-0.5l0.2-0.5l0.2-0.5l0.3-0.5l0.3-0.5l0.3-0.5l0.4-0.5l0.3-0.3l0.3-0.2l0.3-0.2l0.4-0.2l0.4-0.2l0.4-0.1l0.5-0.1
	l0.5-0.1l0.5-0.1l0.6,0h0.6l0.6,0l0.6,0l0.7,0.1l0.7,0.1l0.7,0.1l2.3,0.4l2.4,0.4l2.4,0.4l2.4,0.4l2.4,0.4l2.4,0.3l2.4,0.3l2.5,0.3
	l2.5,0.3l2.5,0.3l2.5,0.2l2.6,0.2l2.6,0.2l2.6,0.2l2.6,0.2l2.6,0.1l4.2,0.2l4.2,0.2l4.2,0.1l4.2,0.1l4.2,0.1l4.2,0.1l4.2,0.1l4.2,0
	l4.2,0l4.2,0l4.2,0l4.2-0.1l4.3-0.1l4.2-0.1l4.3-0.1l4.3-0.1l4.3-0.2l4.3-0.2l4.3-0.2l4.3-0.2l4.3-0.2l4.3-0.3l4.3-0.3l4.3-0.3
	l4.3-0.3l4.3-0.4l4.3-0.4l4.3-0.4l4.3-0.4l4.3-0.4l4.3-0.5l4.3-0.5l6.6-0.8l6.6-0.9l6.7-0.9l6.7-1l6.7-1.1l6.8-1.1l6.8-1.2l6.8-1.3
	l5-1l5-1l5-1.1l4.9-1.2l4.9-1.2l4.9-1.2l4.9-1.3l4.8-1.3l4.8-1.4l4.8-1.5l4.8-1.5l4.7-1.6l4.7-1.6l4.7-1.7l4.7-1.7L435.8,386.5z"/>
<path d="M76.1,493.5l1.1,2.7l1.2,2.7l1.2,2.7l1.2,2.7l1.3,2.7l1.3,2.7l1.4,2.7l1.4,2.7l1.4,2.7l1.5,2.7l1.5,2.7l1.6,2.7l1.6,2.7
	l1.6,2.7l1.6,2.7l1.7,2.7l1.7,2.7l1.8,2.7l1.8,2.7l1.8,2.7l1.9,2.6l1.9,2.6l1.9,2.6l2,2.6l2,2.6l2,2.6l2,2.6l2.1,2.5l2.1,2.5
	l2.1,2.5l2.2,2.5l2.2,2.5l0.9,1l0.8,0.9l0.7,0.9l0.6,0.8l0.6,0.8l0.5,0.8l0.4,0.7l0.4,0.7l0.3,0.7l0.3,0.7l0.2,0.7l0.2,0.7l0.1,0.7
	l0.1,0.7l0,0.7l0,0.6l-0.1,0.7l-0.2,0.7l-0.2,0.7l-0.3,0.7l-0.4,0.7l-0.4,0.7l-0.5,0.7l-0.6,0.7l-0.6,0.6l-0.6,0.6l-0.7,0.5
	l-0.8,0.4l-0.8,0.4l-0.8,0.3l-0.9,0.2l-0.9,0.2l-0.9,0.1l-0.9,0l-0.9,0l-0.9-0.1l-0.8-0.2l-0.8-0.2l-0.4-0.1l-0.4-0.2l-0.4-0.2
	l-0.3-0.2l-0.6-0.4l-0.7-0.5l-0.7-0.5l-0.7-0.6l-0.7-0.7l-0.7-0.7l-0.7-0.8l-0.7-0.8l-3.1-3.5l-3-3.5l-2.9-3.5l-2.9-3.5l-2.8-3.5
	l-2.7-3.5l-2.7-3.5l-2.6-3.5l-2.6-3.6l-2.5-3.6l-2.5-3.7l-2.4-3.7l-2.4-3.7l-2.3-3.7l-2.3-3.8l-2.2-3.8l-2.1-3.8l-2.1-3.8l-2-3.8
	l-2-3.9l-1.9-3.9l-1.9-3.9l-1.8-3.9l-1.7-4l0,0l0,0l0,0l0,0l0,0l-1.8-4.3l-1.7-4.3l-1.7-4.4l-1.6-4.4l-1.5-4.4l-1.5-4.4l-1.4-4.5
	l-1.3-4.5l-1.3-4.5l-1.2-4.5l-1.1-4.6l-1.1-4.6l-1-4.6l-0.9-4.7l-0.9-4.7l-0.8-4.7l-0.4-2.4l-0.4-2.6l-0.3-2.7L36,422l-0.3-2.9
	l-0.2-3.1l-0.2-3.2l-0.2-3.3l-0.1-1.5l0-1.4l0-1.2l0-1.1l0-1l0.1-0.9l0.1-0.8l0.1-0.6l0.1-0.5l0.2-0.5l0.2-0.5l0.2-0.5l0.2-0.5
	l0.2-0.4l0.3-0.4l0.3-0.4l0.3-0.4l0.3-0.4l0.3-0.4l0.3-0.3l0.4-0.3l0.4-0.3l0.4-0.3l0.4-0.2l0.4-0.2l0.4-0.2l0.4-0.2l0.4-0.1
	l0.4-0.1l0.4-0.1l0.4-0.1l0.4-0.1l0.4,0l0.4,0l0.4,0l0.4,0l0.4,0l0.4,0l0.9,0.2l0.9,0.2l0.9,0.3l0.8,0.4l0.8,0.5l0.7,0.5l0.7,0.6
	l0.6,0.6l0.6,0.7l0.4,0.6l0.4,0.7l0.4,0.7l0.3,0.7l0.2,0.7l0.2,0.8l0.1,0.8l0.1,0.8l0.4,4.2l0.4,4.2l0.5,4.2l0.5,4.2l0.6,4.2
	l0.6,4.1l0.7,4.1l0.8,4.1l0.8,4.1l0.9,4.1l0.9,4l1,4l1,4l1.1,4l1.1,4l1.2,4l0,0l0,0l0,0l1,3.1l1,3.1l1.1,3.1l1.1,3.1l1.1,3.1
	l1.2,3.1l1.2,3.1L76.1,493.5z"/>
<path d="M422.7,435.1l-2.5,2.1l-2.6,2.1l-2.6,2l-2.6,2l-3.3,2.5l-3.3,2.4l-3.4,2.4l-3.4,2.3l-3.4,2.3l-3.5,2.2l-3.5,2.2l-3.5,2.2
	l-3.6,2.1l-3.6,2.1l-3.6,2l-3.7,2l-3.7,1.9l-3.7,1.9l-3.8,1.8l-3.8,1.8l-3.8,1.7l-3.9,1.7l-3.9,1.6l-3.9,1.6l-4,1.5l-4,1.5l-4,1.4
	l-4,1.4l-4,1.3l-4.1,1.3l-4.1,1.2l-4.1,1.2l-4.2,1.1l-4.2,1.1l-4.2,1l-4.2,1l-4.1,0.9l-4.1,0.8l-4.1,0.8l-4.1,0.7l-4.1,0.6l-4.1,0.6
	l-4.1,0.5l-4.1,0.4l0,0l-2.8,0.3l-2.8,0.2l-2.8,0.2l-2.8,0.2l-2.6,0.1l-2.7,0.1l-2.7,0l-2.7,0l-2.8-0.1l-2.8-0.1l-2.8-0.2l-2.8-0.2
	l-1-0.1l-1-0.2l-1-0.3l-1-0.4l-1-0.4l-0.9-0.5l-0.9-0.5l-0.8-0.6l-0.7-0.6l-0.6-0.6l-0.6-0.6l-0.2-0.3l-0.2-0.3l-0.2-0.3l-0.2-0.3
	l-0.2-0.4l-0.1-0.4l-0.1-0.3l-0.1-0.4l-0.1-0.4l0-0.4l0-0.7l0-0.6l0.1-0.7l0.1-0.7l0.2-0.6l0.2-0.6l0.3-0.5l0.3-0.5l0.4-0.5l0.4-0.4
	l0,0l0,0l0,0l0.4-0.3l0.5-0.3l0.5-0.3l0.6-0.2l0.6-0.2l0.6-0.1l0.7-0.1l0.7,0l3,0l3,0l3-0.1l3-0.1l3-0.1l3-0.1l3-0.2l3-0.2l3-0.2
	l2.9-0.2l2.9-0.3l2.9-0.3l2.9-0.3l2.9-0.3l2.9-0.4l2.9-0.4l2.9-0.4l2.9-0.5l2.9-0.5l2.9-0.5l2.9-0.5l2.9-0.5l2.9-0.6l2.8-0.6
	l2.8-0.6l2.8-0.7l2.8-0.7l2.8-0.7l2.8-0.7l2.8-0.8l2.8-0.8l2.8-0.8l0,0l0,0l0,0l0,0l0,0l0,0l2.8-0.8l2.7-0.8l2.7-0.9l2.7-0.9
	l2.7-0.9l2.7-0.9l2.7-1l2.7-1l2.7-1l2.7-1l2.7-1.1l2.7-1.1l2.7-1.1l2.6-1.1l2.6-1.2l2.6-1.2l3.2-1.5l3.3-1.6l3.3-1.7l3.4-1.8
	l3.4-1.9l3.5-1.9l3.5-2l3.5-2.1l3.6-2.2l3.6-2.3l3.7-2.3l3.7-2.4l3.8-2.5l3.8-2.6l3.8-2.7l3.9-2.8l0.6-0.4l1.5-1.1l1.2-0.8l0.6-0.3
	l0.5-0.3l0.5-0.2l0.5-0.2l0.5-0.2l0.5-0.1l0.5-0.1l0.5-0.1l0.4,0h0.4l0.4,0l0.4,0.1l0.5,0.2l0.5,0.2l0.5,0.3l0.5,0.3l0.5,0.4
	l0.5,0.4l0.4,0.5l0.4,0.5l0.3,0.5l0.3,0.5l0.2,0.5l0.2,0.5l0.1,0.5l0.1,0.5l0,0.5l-0.1,0.5l-0.1,0.4l-0.1,0.3l-0.1,0.3l-0.2,0.3
	l-0.2,0.3l-0.5,0.7l-0.6,0.7l-0.7,0.8l-0.8,0.8l-0.9,0.8L422.7,435.1z"/>
<path d="M173.6,473.2l-0.7-0.3l-0.7-0.4l-0.7-0.5l-0.7-0.5l-0.7-0.6l-0.6-0.6l-0.6-0.6l-0.5-0.7l-0.4-0.7l-0.4-0.7l-0.3-0.7
	l-0.2-0.7l-0.1-0.7l-0.1-0.6l0-0.6l0.1-0.6v0l0.1-0.7l0.2-0.6l0.2-0.6l0.2-0.5l0.3-0.5l0.3-0.4l0.4-0.4l0.4-0.4l0,0l0,0l0,0l0,0l0,0
	l0.5-0.3l0.5-0.3l0.5-0.2l0.6-0.2l0.6-0.1l0.6-0.1l0.7,0l0.7,0l5.3,0.3l5.3,0.2l5.3,0.2l5.3,0.1l5.3,0.1h5.3l5.3-0.1l5.2-0.1
	l5.2-0.2l5.2-0.2l5.2-0.3l5.2-0.3l5.2-0.4l5.2-0.4l5.2-0.5l5.2-0.5l0,0l0,0l0,0l4.1-0.5l4.1-0.5l4.1-0.5l4.1-0.6l4.1-0.6l4.1-0.6
	l4.1-0.7l4-0.7l4-0.7l4-0.8l4-0.8l4-0.8l4-0.9l4-0.9l4-0.9l4-1l2.8-0.7l3.1-0.8l3.4-1l4.7-1.3l4.1-1.2l3-0.8l2.7-0.7l2.5-0.6
	l0.5-0.1l0.5-0.1l0.5,0h0.6l0.6,0l0.5,0.1l0.5,0.1l0.5,0.2l0.5,0.2l0.5,0.2l0.5,0.2l0.4,0.3l0.4,0.3l0.4,0.3l0.3,0.4l0.3,0.4
	l0.3,0.4l0.2,0.5l0.2,0.5l0.1,0.5l0.1,0.7l0,0.4l0,0.3l0,0.3l0,0.3l0,0.3l-0.1,0.3l-0.2,0.5l-0.2,0.4l-0.2,0.4l-0.3,0.4l-0.3,0.4
	l-0.4,0.4l-0.4,0.4l-0.5,0.4l-0.5,0.3l-0.5,0.3l-0.6,0.3l-0.7,0.3l-0.7,0.3l-0.8,0.3l-2,0.8l-0.7,0.3l-3.3,1.3l-3.4,1.3l-3.4,1.2
	l-3.4,1.2l-3.4,1.2l-3.5,1.1l-3.5,1.1l-3.5,1l-3.5,1l-3.5,1l-3.6,0.9l-3.6,0.9l-3.6,0.9l-3.6,0.8l-3.6,0.8l-3.7,0.8l-4.2,0.8
	l-4.2,0.8l-4.2,0.7l-4.2,0.7l-4.3,0.7l-4.3,0.6l-4.3,0.6l-4.3,0.6l-4.3,0.5l-4.3,0.5l-4.3,0.4l-4.3,0.4l-4.3,0.4l-4.4,0.3l-4.4,0.3
	l-4.4,0.3l-2.6,0.1l-2.6,0.1l-2.6,0.1l-2.5,0.1l-2.5,0l-2.5,0h-2.5l-2.5,0l-2.5,0l-2.5-0.1l-2.5-0.1l-2.5-0.1l-2.4-0.1l-2.4-0.2
	l-2.4-0.2l-2.4-0.2l-1.4-0.2l-1.3-0.2l-1.3-0.2l-1.3-0.3l-1.2-0.3l-1.2-0.4l-1.1-0.4L173.6,473.2z"/>
</svg>
